<?xml version="1.0" encoding="UTF-8"?>
<svg width="255px" height="340px" viewBox="0 0 255 340" version="1.1" xmlns="http://www.w3.org/2000/svg" xmlns:xlink="http://www.w3.org/1999/xlink">
    <!-- Generator: Sketch 48.1 (47250) - http://www.bohemiancoding.com/sketch -->
    <title>Slice</title>
    <desc>Created with Sketch.</desc>
    <defs>
        <linearGradient x1="0%" y1="24.3270518%" x2="99.0706694%" y2="74.6970625%" id="linearGradient-1">
            <stop stop-color="#F15D40" offset="0%"></stop>
            <stop stop-color="#E052A0" offset="100%"></stop>
        </linearGradient>
        <linearGradient x1="27.7777778%" y1="0%" x2="71.8091863%" y2="98.0993892%" id="linearGradient-2">
            <stop stop-color="#F15D40" offset="0%"></stop>
            <stop stop-color="#E052A0" offset="100%"></stop>
        </linearGradient>
        <linearGradient x1="28.7133445%" y1="0%" x2="70.8910087%" y2="98.0993892%" id="linearGradient-3">
            <stop stop-color="#F15D40" offset="0%"></stop>
            <stop stop-color="#E052A0" offset="100%"></stop>
        </linearGradient>
        <linearGradient x1="41.5878817%" y1="0%" x2="58.2557655%" y2="98.0993892%" id="linearGradient-4">
            <stop stop-color="#F15D40" offset="0%"></stop>
            <stop stop-color="#E052A0" offset="100%"></stop>
        </linearGradient>
        <linearGradient x1="25.0638857%" y1="0%" x2="74.4726364%" y2="98.0993892%" id="linearGradient-5">
            <stop stop-color="#F15D40" offset="0%"></stop>
            <stop stop-color="#E052A0" offset="100%"></stop>
        </linearGradient>
        <linearGradient x1="28.8657355%" y1="0%" x2="70.7414502%" y2="98.0993892%" id="linearGradient-6">
            <stop stop-color="#F15D40" offset="0%"></stop>
            <stop stop-color="#E052A0" offset="100%"></stop>
        </linearGradient>
        <linearGradient x1="0%" y1="0.0913038707%" x2="99.0706694%" y2="98.011556%" id="linearGradient-7">
            <stop stop-color="#F15D40" offset="0%"></stop>
            <stop stop-color="#E052A0" offset="100%"></stop>
        </linearGradient>
        <linearGradient x1="0%" y1="26.1602245%" x2="99.0706694%" y2="72.9335728%" id="linearGradient-8">
            <stop stop-color="#F15D40" offset="0%"></stop>
            <stop stop-color="#E052A0" offset="100%"></stop>
        </linearGradient>
    </defs>
    <g id="Page-1" stroke="none" stroke-width="1" fill="none" fill-rule="evenodd">
        <g id="hats" transform="translate(-1.000000, -2.000000)" fill-rule="nonzero">
            <g id="np_bowler-hat_1217159_000000" transform="translate(180.463046, 148.277034) rotate(29.000000) translate(-180.463046, -148.277034) translate(117.463046, 106.277034)" fill="url(#linearGradient-2)">
                <path d="M121.788323,44.3396887 L105.527865,43.5598123 L105.527865,53.5140852 C92.2207406,60.5979971 78.3431081,66.5662352 64.0400308,71.3424062 C29.4044206,74.3914802 17.5445884,65.9753315 17.5445884,65.9753315 L17.5445884,53.0856731 C17.5445884,53.0856731 41.7654312,70.9847029 101.753712,42.9906758 C103.020803,42.4111826 104.260719,41.7721137 105.527726,41.2034071 L105.527726,29.9709687 C105.288441,21.9392817 101.922303,14.3193694 96.1306289,8.71951032 C90.3445232,3.12491971 82.5896213,-0.00540014964 74.5242672,6.99335309e-06 L48.6175157,6.99335309e-06 C40.547289,6.99335309e-06 32.8039421,3.13032685 27.0167227,8.72491746 C21.230617,14.3249152 17.8589387,21.9449661 17.6250554,29.9708301 L17.6250554,41.7718503 L8.86960636,48.5361862 C8.14089283,48.9911072 7.45572615,49.5110248 6.81936868,50.0905318 C6.34081283,50.4371436 5.87312977,50.8054116 5.4272062,51.2007708 C1.97937661,54.2986478 0.0108588673,58.7071331 0,63.3321814 C0.0108755733,64.220367 0.0870101549,65.10309 0.239284887,65.9805723 C1.03324907,70.8061008 3.94814494,75.0249201 8.18435615,77.5000051 L8.18435615,77.6245691 C8.18435615,77.6245691 47.7092411,102.17993 125.126004,51.1572974 C125.142319,51.1735451 126.409411,45.1674307 121.787042,44.3387514 L121.788323,44.3396887 Z" id="Shape"></path>
            </g>
            <g id="Page-1" transform="translate(161.054791, 266.087169) rotate(30.000000) translate(-161.054791, -266.087169) translate(90.554791, 220.087169)" fill="url(#linearGradient-3)">
                <path d="M0.00612110177,55.2363487 C3.1754011,52.9691632 33.5191156,44.3432784 33.5191156,44.3432784 L36.6883956,13.0213558 C36.6883956,13.0213558 36.6883956,5.30461226 45.294734,3.94082464 C54.3546885,3.03159259 55.7095044,3.48620862 55.7095044,3.48620862 C55.7095044,3.48620862 64.3158429,-1.96334945 76.0860324,0.764376922 C88.3152669,3.94085487 93.2926772,6.21393499 96.91497,8.48112043 C100.991331,11.2029521 104.614227,18.9195445 106.422659,26.6367414 C107.329831,32.0862995 107.783417,33.4441925 107.783417,33.8988387 C107.783417,33.8988387 126.804224,29.3585731 133.142483,39.3483968 C139.480892,49.3323257 144.918101,62.4978716 137.218844,75.6581273 C129.519587,88.3697827 124.088409,92 113.667908,92 C110.045163,92 103.706603,91.090768 98.2693939,89.7328146 C89.2094394,86.5563366 81.062749,82.4707173 72.002493,78.8397442 C65.2104678,75.6632663 57.9648265,72.4869395 50.7196377,69.7592131 C41.6596832,66.1282401 29.4367826,61.5879745 17.2066433,58.4114965 C11.3218501,57.0476485 5.43102634,55.6896649 -3.19744231e-14,55.2350186 L0.00612110177,55.2363487 Z M92.3911758,88.3705082 C85.5991506,87.0066601 80.6155573,85.1940302 80.6155573,85.1940302 C73.8235321,82.9268448 32.6118836,67.9483063 11.781438,59.77737 C7.25146071,57.9589361 3.62871701,57.0555383 1.36666906,56.1463969 C6.35026081,57.055629 11.781438,57.9648308 17.2190996,59.3228749 C28.9947181,62.4993528 41.2179205,67.0396184 50.2781765,70.6705914 C57.5238178,73.3924231 64.769459,76.5687499 72.0149494,79.7511226 C78.8069746,82.4729543 85.5989998,85.6492811 92.3914774,88.3770074 L92.3911758,88.3705082 Z M33.9730333,49.7875463 L33.9785526,49.7876975 C33.9785526,49.7876975 32.6177951,52.9640243 33.0713809,56.1405022 C33.5252986,59.316829 40.3174746,63.402539 48.923813,64.7663871 C61.6018378,67.4882188 115.94935,75.2051135 110.965756,52.9640243 C110.965756,52.9640243 110.965756,55.685856 109.151443,57.5042898 C99.1833518,68.3966044 30.350288,65.2210334 33.9730333,49.7875463 Z M52.5399229,35.7179981 C51.6327512,35.7179981 51.1791653,37.0759817 51.1791653,38.4398298 C51.1791653,39.7977832 51.6327512,40.7070152 52.5399229,40.7070152 C52.9935088,40.7070152 53.4470946,39.8036778 53.4470946,38.4398298 C53.4470946,37.0818461 52.9935088,35.7179981 52.5399229,35.7179981 Z M44.8406657,34.35415 C43.9334939,34.35415 43.4799081,35.2574874 43.4799081,36.6213354 C43.4799081,37.9792888 43.9334939,38.8885209 44.8406657,38.8885209 C45.2942515,38.8885209 45.7478374,37.9851835 45.7478374,36.6213354 C45.7478374,35.263382 45.2942515,34.35415 44.8406657,34.35415 Z M38.5022565,32.5357161 C38.0486706,32.5357161 37.5950848,33.4390535 37.5950848,34.8029016 C37.5950848,36.160855 38.0486706,37.070087 38.5022565,37.070087 C38.9558423,37.070087 39.4094282,36.1667496 39.4094282,34.8029016 C39.4094282,33.4449482 38.9558423,32.5357161 38.5022565,32.5357161 Z" id="Fill-5"></path>
            </g>
            <g id="Page-1" transform="translate(52.543581, 190.591969) rotate(-18.000000) translate(-52.543581, -190.591969) translate(7.043581, 160.591969)">
                <path d="M50.199,6.398 C36.199,5.0972 25.199,7.6988 18.301,13.9996 C13.9026,18.1012 12.5002,22.4996 12.1018,23.6988 C12.80102,24.6988 13.801,25.5972 15.2034,26.4996 C22.7034,31.4996 28.7034,33.6012 46.6014,34.1012 C63.9024,34.6012 76.3004,32.3004 80.6014,27.8004 C80.49984,27.69884 80.49984,27.60118 80.40218,27.49962 C77.49988,18.89802 69.69918,8.19862 50.19918,6.39762 L50.199,6.398 Z" id="Fill-1" fill="url(#linearGradient-4)"></path>
                <path d="M25.699,34.102 C26.39822,38.102 27.9998,39.9028 28.8982,40.602 C29.19898,40.50044 29.59742,40.40278 29.9998,40.30122 C31.199,40.19966 32.199,40.69966 32.9998,41.50042 C33.9998,40.69964 35.3982,39.19962 36.6014,36.39882 C36.80062,35.89882 37.1014,35.50038 37.30062,35.19962 C32.40222,34.80118 28.60142,34.09802 25.40262,33.09802 C25.50028,33.3988 25.60184,33.80114 25.6995,34.10192 L25.699,34.102 Z" id="Fill-2" fill="url(#linearGradient-5)"></path>
                <path d="M90.102,23.699 C87.0004,11.101 63.102,2.601 46.801,1 C30.399,-0.6016 2.300999,6.1992 1,24.602 C1,24.602 0.60156,31.5004 1.89844,37.102 C1.89844,37.102 2.79688,45.2036 7.39844,48.5 C15.09764,53.8984 26.19944,59.602 47.69944,59.301 C67.09744,59.00022 77.89844,54.1018 84.89844,48.301 C87.69924,46.0002 93.10154,36.399 90.10154,23.699 L90.102,23.699 Z M82.8012,27.8006 C78.3012,34.699 61.3012,35.8006 50.9032,35.8006 C49.3016,35.8006 47.9032,35.8006 46.704,35.69904 C45.6024,35.69904 44.5048,35.59748 43.5048,35.59748 C44.704,36.99588 45.3056,39.09748 44.5048,41.79668 C43.204,46.29668 38.9032,46.79668 35.8056,46.49588 C36.8056,46.99588 38.0048,47.39432 39.5048,47.69508 C44.9032,48.69508 44.704,56.09348 37.204,55.59348 C32.4032,55.2927 30.6024,51.29268 29.8056,48.39428 C29.40716,48.29272 29.00482,48.19506 28.6064,47.99584 C26.9072,50.29664 23.3056,53.89424 18.4074,51.99584 C11.509,49.19504 14.4074,42.49584 19.7082,43.89424 C22.3098,44.59346 24.2082,44.4958 25.509,44.19502 C22.509,44.09346 17.2082,43.09342 16.9074,37.79662 C16.70818,34.29662 18.4074,32.09742 20.4074,31.19502 C18.3058,30.19502 16.4074,29.09342 14.4074,27.79662 C12.7082,26.69502 11.509,25.49582 10.7082,24.29662 L10.7082,24.19506 C7.4074,19.49586 9.7082,14.79666 9.7082,14.69506 C9.90742,14.29662 10.40742,14.0935 10.8098,14.29662 C11.20824,14.49584 11.41136,14.99584 11.20824,15.29662 C11.10668,15.49584 9.80984,18.39822 11.20824,21.69502 C12.00902,19.59342 13.70824,16.09342 17.30984,12.79662 C22.30984,8.19502 32.20784,2.99582 50.41184,4.69502 C70.21284,6.49582 78.41184,17.29702 81.80984,26.19502 C82.70828,24.49582 82.61062,22.49582 81.50906,20.19502 C81.30984,19.79658 81.50906,19.29658 81.9075,19.19502 C82.30594,18.9958 82.80594,19.19502 82.9075,19.59346 C84.302,22.80046 84.302,25.49966 82.80203,27.80046 L82.8012,27.8006 Z" id="Fill-3" fill="url(#linearGradient-6)"></path>
                <path d="M31.898,44.398 C31.898,46.5347 28.6988,46.5347 28.6988,44.398 C28.6988,42.2652 31.898,42.2652 31.898,44.398" id="Fill-4" fill="url(#linearGradient-7)"></path>
            </g>
            <path d="M99.6999695,107.995483 C94.7036129,90.1769756 73.6274402,11.4571736 59.1988657,11.1107804 C49.4162415,10.8787307 44.490049,17.6485305 39.8524279,21.3662593 C33.6211629,26.358244 27.8631897,26.043015 28.1120547,29.2046091 C28.1120547,29.2046091 33.6558022,34.5776262 42.7513685,31.7882086 C42.7513685,31.7882086 45.6414531,27.7551388 45.7466042,27.7114193 C45.7466042,27.7114193 43.324991,34.0959268 43.5746407,34.603858 C43.8417558,35.1424713 43.8767875,35.5190645 44.643101,35.6635631 L47.3711992,32.1516524 L33.6869888,84.961472 L37.6674831,84.5279537 L41.8800272,76.7070917 L45.5276927,84.8082071 L54.2681219,86.397804 L47.6909122,92.3663035 L48.8819889,101.168052 L41.1706499,96.758434 L33.1659417,100.607545 L34.9788446,91.9109479 L32.5441156,89.362436 L27.7841807,107.268383 C23.3351028,107.951506 25.6779086,112.680746 25.6779086,112.680746 C25.6779086,112.680746 28.6644004,122.704175 65.1196324,123.190246 C101.574988,123.676307 102.459467,111.357951 102.459467,111.357951 C102.455096,111.362323 102.765997,108.406547 99.7007655,107.994911 L99.6999695,107.995483 Z M45.8778748,66.0449204 L42.79946,67.5249944 L43.4957102,64.179442 L41.1354165,61.7097374 L44.5334323,61.3375274 L46.1536329,58.3291758 L47.5548996,61.4469383 L50.9179398,62.0599981 L48.3869158,64.3589723 L48.8423275,67.7438722 L45.8778748,66.0449204 Z M52.0565643,80.8198768 L53.0943761,75.8322641 L49.5737214,72.1495109 L54.6357695,71.5977593 L57.0528986,67.1093338 L59.1416828,71.7553738 L64.1556394,72.6661972 L60.385335,76.0905568 L61.068447,81.139489 L56.6457129,78.6084649 L52.0565643,80.8198768 Z M70.3167514,112.532223 C62.4039663,113.070836 55.5597311,107.093516 55.0205125,99.1854391 C54.4818992,91.277026 60.459221,84.4284189 68.3672979,83.8892115 C72.2426411,83.6264684 75.8640749,84.9270233 78.6096609,87.2522517 C76.8755653,86.4465233 74.9225357,86.056803 72.8819551,86.1969184 C66.4098964,86.6391919 61.5227264,92.2398532 61.9651904,98.7119119 C62.4074638,105.18397 68.0081252,110.075624 74.4801839,109.633048 C76.5207645,109.492922 78.3993588,108.840458 80.0108155,107.811401 C77.5980584,110.486924 74.1911866,112.269221 70.3158433,112.531874 L70.3167514,112.532223 Z" id="Fill-57" fill="url(#linearGradient-8)" transform="translate(63.763977, 67.154614) rotate(-25.000000) translate(-63.763977, -67.154614) "></path>
        </g>
    </g>
</svg>