<svg xmlns="http://www.w3.org/2000/svg" viewBox="0 0 144 52.48"><defs><style>.cls-1{fill:#fff;}</style></defs><title>Asset 1</title><g id="Layer_2" data-name="Layer 2"><g id="Layer_1-2" data-name="Layer 1"><path class="cls-1" d="M72.41,10.25l.75.75-.75.74L71.69,11Zm.38,11.39-.73.24V14.43l.73-.25Z"/><path class="cls-1" d="M75.06,14.43l.73-.25v1.16h0A2.89,2.89,0,0,1,78.29,14a2.39,2.39,0,0,1,2.63,2.4v5.22l-.72.24V16.61a1.83,1.83,0,0,0-1.91-1.93,2.51,2.51,0,0,0-2.5,2.53v4.43l-.73.24Z"/><path class="cls-1" d="M86.24,15.51a1.81,1.81,0,0,0-1.43-.83,1.46,1.46,0,0,0-1.47,1.37,1.29,1.29,0,0,0,1.1,1.44c1.12.38,2.34.77,2.34,2.28a2.24,2.24,0,0,1-2.3,2.28,2.75,2.75,0,0,1-1.88-.89l.45-.56a1.92,1.92,0,0,0,1.45.79,1.47,1.47,0,0,0,1.55-1.45c0-1.18-.72-1.41-1.61-1.7s-1.82-.6-1.82-2A2.18,2.18,0,0,1,84.92,14a2.33,2.33,0,0,1,1.71.89Z"/><path class="cls-1" d="M89.68,11.7v2.61H92V15H89.68v4.41c0,1.24.14,2,1.71,2a2.11,2.11,0,0,0,.75-.13l-.21.69a4.38,4.38,0,0,1-.87.1C89,22.05,89,20.25,89,19.57V15h-.76l.24-.66H89V12Z"/><path class="cls-1" d="M93.88,10.25l.74.75-.74.74L93.15,11Zm.37,11.39-.72.24V14.43l.72-.25Z"/><path class="cls-1" d="M97.75,11.7v2.61H100V15H97.75v4.41c0,1.24.14,2,1.72,2a2.06,2.06,0,0,0,.74-.13L100,22a4.38,4.38,0,0,1-.87.1C97,22.05,97,20.25,97,19.57V15h-.76l.25-.66H97V12Z"/><path class="cls-1" d="M107.37,21.64l-.72.24V20.73h0a2.77,2.77,0,0,1-2.36,1.32c-1.51,0-2.74-.81-2.74-2.4V14.43l.73-.25V19.4a1.85,1.85,0,0,0,2,2,2.49,2.49,0,0,0,2.4-2.53V14.43l.72-.25Z"/><path class="cls-1" d="M110.79,11.7v2.61h2.27V15h-2.27v4.41c0,1.24.14,2,1.71,2a2.11,2.11,0,0,0,.75-.13L113,22a4.38,4.38,0,0,1-.87.1c-2.11,0-2.11-1.8-2.11-2.48V15h-.77l.25-.66h.52V12Z"/><path class="cls-1" d="M114.82,19.42a3.43,3.43,0,0,0,5.49,1v.83a4.08,4.08,0,0,1-2.49.79,4,4,0,0,1,.05-8A3.59,3.59,0,0,1,121,15.67ZM120,15.55a2.72,2.72,0,0,0-2-.87A3.43,3.43,0,0,0,114.49,18a4.11,4.11,0,0,0,.1.85Z"/><path class="cls-1" d="M130.44,15h-2.26v6.67l-.72.24V9.71a2.9,2.9,0,0,1,2.94-3v.73a2.16,2.16,0,0,0-2.22,2.23v4.62h2.26Z"/><path class="cls-1" d="M135.08,14a4,4,0,1,1-4,4A4,4,0,0,1,135.08,14Zm0,7.37A3.36,3.36,0,1,0,131.72,18,3.34,3.34,0,0,0,135.08,21.39Z"/><path class="cls-1" d="M140.85,14.43l.72-.25v1.16h0A2.12,2.12,0,0,1,143.69,14v.83a2,2,0,0,0-2.12,2.23v4.56l-.72.24Z"/><path class="cls-1" d="M76.36,29a2.45,2.45,0,0,0-1.86-1.24A1.46,1.46,0,0,0,73,29.19c0,2.11,4.41,1.13,4.41,4.57a3,3,0,0,1-3.1,3,3.49,3.49,0,0,1-3-1.67l1.08-1.06a2.48,2.48,0,0,0,2,1.38,1.54,1.54,0,0,0,1.53-1.59c0-2.26-4.41-1.06-4.41-4.62a2.93,2.93,0,0,1,3.08-2.87A3.32,3.32,0,0,1,77.33,28Z"/><path class="cls-1" d="M84.61,26.36a5.22,5.22,0,1,1-5.36,5.22A5.31,5.31,0,0,1,84.61,26.36Zm0,9a3.81,3.81,0,1,0-3.84-3.8A3.83,3.83,0,0,0,84.61,35.38Z"/><path class="cls-1" d="M91.66,26.61h4.76L96.77,28H93.18v2.86h2.59v1.29H93.18v4.38l-1.52.11Z"/><path class="cls-1" d="M101.22,28H98.4l.44-1.35h6.44V28h-2.54v8.53l-1.52.11Z"/><path class="cls-1" d="M113.06,31.93l-2.24,5-4.26-10.31h1.57l2.79,6.79,1.41-3.11-1.69-3.68h1.52l.9,2.08.9-2.08h1.51l-1.68,3.68,1.41,3.11L118,26.61h1.58l-4.27,10.31Z"/><path class="cls-1" d="M118,36.34l5.52-10,5.25,10.13-1.5.3-2-4h-3.76l-2.12,4Zm6.7-4.75-1.18-2.44-1.36,2.44Z"/><path class="cls-1" d="M130.3,26.61h2.14c2.37,0,3.47,1.25,3.47,2.83a2.61,2.61,0,0,1-2.32,2.65l3.07,4.07-1.39.63L131.85,32h0v4.45l-1.52.11Zm1.52,4.5h.8a1.64,1.64,0,1,0,0-3.26h-.79Z"/><path class="cls-1" d="M138.28,26.61h4.88l.36,1.35h-3.73v2.86h3v1.29h-3v3.08H144l-.58,1.35h-5.14Z"/><path class="cls-1" d="M71.66,41.39h2.13c2.38,0,3.47,1.26,3.47,2.83a2.6,2.6,0,0,1-2.32,2.65L78,50.94l-1.4.64L73.2,46.83h0v4.44l-1.51.11Zm1.51,4.5H74a1.64,1.64,0,1,0,0-3.26h-.79Z"/><path class="cls-1" d="M80.16,41.39h4.89l.36,1.35H81.68V45.6h3v1.3h-3V50h4.21l-.58,1.36H80.16Z"/><path class="cls-1" d="M92.86,43.74A2.42,2.42,0,0,0,91,42.5,1.45,1.45,0,0,0,89.47,44c0,2.11,4.41,1.13,4.41,4.57a3,3,0,0,1-3.1,3,3.49,3.49,0,0,1-3-1.68l1.08-1.06a2.5,2.5,0,0,0,2,1.38,1.55,1.55,0,0,0,1.54-1.58C92.37,46.37,88,47.57,88,44A2.93,2.93,0,0,1,91,41.14a3.34,3.34,0,0,1,2.8,1.59Z"/><path class="cls-1" d="M96.66,41.39h4.89l.36,1.35H98.18V45.6h3v1.3h-3V50h4.21l-.58,1.36H96.66Z"/><path class="cls-1" d="M103.61,51.12l5.52-10,5.26,10.13-1.51.31-2-4h-3.75l-2.13,4Zm6.71-4.75-1.19-2.44-1.35,2.44Z"/><path class="cls-1" d="M116.49,41.39h2.14c2.37,0,3.46,1.26,3.46,2.83a2.59,2.59,0,0,1-2.32,2.65l3.08,4.07-1.39.64L118,46.83h0v4.44l-1.52.11Zm1.52,4.5h.8a1.65,1.65,0,0,0,1.82-1.63,1.67,1.67,0,0,0-1.83-1.63H118Z"/><path class="cls-1" d="M131.33,42.88a3.28,3.28,0,0,0-1.52-.33,3.73,3.73,0,0,0-3.8,3.78,3.85,3.85,0,0,0,4,3.84,5.4,5.4,0,0,0,1.28-.18l-.27,1.52a9.57,9.57,0,0,1-1.18.07,5.22,5.22,0,1,1-.22-10.44,4.41,4.41,0,0,1,1.4.2Z"/><path class="cls-1" d="M140.91,46.9h-5.38v4.37l-1.52.11V41.45l1.52-.11V45.6h5.38V41.45l1.52-.11v9.93l-1.52.11Z"/><path class="cls-1" d="M9.08,7.85A3.93,3.93,0,0,0,8.9,0,3.93,3.93,0,0,0,5.15,3.84,4,4,0,0,0,9.08,7.85Z"/><path class="cls-1" d="M0,11V52.48H61.55V11ZM11.34,46.87H6.75V17.21h4.59Zm15.2.93c-2.85.12-6.7-1.43-7.13-1.62V41a16.15,16.15,0,0,0,7,1.8c3.54,0,6-1.86,5.77-4.65-.12-1.8-1.36-2.92-3.48-3.6l-4.21-1.3a7.9,7.9,0,0,1-5.71-8.13c.31-6,5-8.44,10.05-8.44a17.28,17.28,0,0,1,7.38,1.67v5.15c0-.06-4.09-2.17-7.26-2.1s-5.46,1.17-5.39,3.72c0,2.11,1.73,3.29,3.72,3.91l3.85,1.12a8.23,8.23,0,0,1,6,7.75C37,42.89,34.3,47.55,26.54,47.8ZM55.88,22.05H53.53a5.29,5.29,0,0,0-3,.8A3.44,3.44,0,0,0,49.12,26V46.87H44.41v-20c0-3.29.74-6,2.91-7.81a9.64,9.64,0,0,1,6-1.8h2.54Z"/></g></g></svg>