<?xml version="1.0" encoding="utf-8"?>
<!-- Generator: Adobe Illustrator 17.1.0, SVG Export Plug-In . SVG Version: 6.00 Build 0)  -->
<!DOCTYPE svg PUBLIC "-//W3C//DTD SVG 1.1//EN" "http://www.w3.org/Graphics/SVG/1.1/DTD/svg11.dtd">
<svg version="1.1" id="Layer_1" xmlns="http://www.w3.org/2000/svg" xmlns:xlink="http://www.w3.org/1999/xlink" x="0px" y="0px"
	 viewBox="0 0 133.1 66.2" enable-background="new 0 0 133.1 66.2" xml:space="preserve">
<g>
	<path fill="#C20E1A" d="M43.8,38.6c0,0-10.8-14.9,0-36.5H2.3v36.5H43.8L43.8,38.6z"/>
	<path fill="#C20E1A" d="M93.9,38.6c-5.5-8.7-5.1-16.5-5.1-16.5l0-19.9h42.2l0,36.5L93.9,38.6L93.9,38.6z"/>
	<path fill="#F6F6F6" d="M52.5,2.1c0,0-4.8,8.3-4.9,16.1H52v3.8h-4.6c0,0-0.4,7.8,5.1,16.5h-4.5c0,0-10.8-14.9,0-36.5H52.5L52.5,2.1
		z"/>
	<path fill="#F6F6F6" d="M69.2,38.6h4.2V22.1h4.5v-3.8h-4.4c0.2-7.8,4.9-16.1,4.9-16.1H74c-3.4,6.8-4.7,13-4.8,18.3L69.2,38.6
		L69.2,38.6z"/>
	<path fill="#F6F6F6" d="M84.5,22.1c0,0-0.4,7.8,5.1,16.5h-4.5c0,0-5-6.9-4.8-18.2V2.1h4.1L84.5,22.1L84.5,22.1z"/>
	<polygon fill="#F6F6F6" points="59.4,38.6 59.4,2.1 55.3,2.1 55.3,38.6 59.4,38.6 	"/>
	<path fill="#F6F6F6" d="M65,2.1h-4.4c0,0,6.9,9.1,0,18.3H65C65,20.4,71.5,11.8,65,2.1L65,2.1z"/>
	<path fill="#F6F6F6" d="M2.9,47.7c0-1.5,0-1.8,0-2.1c0-0.3-0.1-0.5-0.4-0.6c-0.1,0-0.2,0-0.3,0c0,0-0.1,0-0.1-0.1
		c0-0.1,0-0.1,0.2-0.1c0.4,0,1,0,1.1,0c0.1,0,2,0,2.2,0c0.2,0,0.3,0,0.4,0c0,0,0.1,0,0.1,0c0,0,0,0,0,0.1c0,0.1,0,0.2-0.1,0.5
		c0,0.1,0,0.5,0,0.6c0,0,0,0.1-0.1,0.1c-0.1,0-0.1,0-0.1-0.1c0-0.1,0-0.2-0.1-0.4c-0.1-0.2-0.2-0.3-0.7-0.3c-0.2,0-1.2,0-1.3,0
		c0,0-0.1,0-0.1,0.1V48c0,0.1,0,0.1,0.1,0.1c0.1,0,1.3,0,1.5,0c0.2,0,0.4,0,0.5-0.1c0.1-0.1,0.1-0.1,0.1-0.1c0,0,0,0,0,0.1
		c0,0.1,0,0.2-0.1,0.5c0,0.2,0,0.6,0,0.6c0,0.1,0,0.2-0.1,0.2c0,0-0.1,0-0.1-0.1c0-0.1,0-0.2,0-0.3c0-0.1-0.1-0.3-0.5-0.3
		c-0.3,0-1.2,0-1.4,0c0,0-0.1,0-0.1,0.1v0.9c0,0.3,0,1.5,0,1.7c0,0.7,0.2,0.8,1.1,0.8c0.3,0,0.7,0,0.9-0.1c0.3-0.1,0.4-0.3,0.4-0.7
		c0-0.1,0-0.1,0.1-0.1c0.1,0,0.1,0.1,0.1,0.1c0,0.1-0.1,0.7-0.1,0.9c-0.1,0.3-0.1,0.3-0.5,0.3c-1.5,0-2.1-0.1-2.4-0.1c0,0-0.7,0-1,0
		c-0.1,0-0.2,0-0.2-0.1c0,0,0-0.1,0.1-0.1c0.1,0,0.2,0,0.3,0c0.2,0,0.2-0.2,0.3-0.5c0-0.4,0-1.2,0-2.1V47.7L2.9,47.7z M5.7,43.6
		c0,0.1,0,0.1,0,0.1c0,0-0.1,0-0.3,0c-0.5,0-1.2,0.3-1.5,0.4c-0.1,0-0.1,0-0.1,0c0,0,0,0,0-0.1c0,0,0,0,0.1-0.1
		c0.3-0.2,1.3-0.8,1.3-0.8C5.3,43.1,5.3,43,5.4,43c0,0,0,0,0.1,0.1C5.5,43.2,5.6,43.4,5.7,43.6L5.7,43.6z"/>
	<path fill="#F6F6F6" d="M8.9,51.3c-0.9-0.8-1.2-1.9-1.2-2.9c0-0.7,0.2-1.8,1.1-2.7c0.6-0.6,1.5-1,3-1c0.4,0,0.9,0,1.4,0.1
		c0.4,0.1,0.7,0.1,1,0.1c0.1,0,0.1,0,0.1,0.1c0,0.1,0,0.2,0,0.5c0,0.3,0,0.9,0,1c0,0.1,0,0.2-0.1,0.2c-0.1,0-0.1-0.1-0.1-0.2
		c0-0.4-0.2-0.8-0.4-1c-0.3-0.3-1.1-0.6-1.9-0.6c-1.3,0-1.9,0.4-2.2,0.7c-0.7,0.7-0.9,1.5-0.9,2.5c0,1.9,1.4,3.6,3.5,3.6
		c0.7,0,1.3-0.1,1.7-0.5c0.2-0.2,0.3-0.6,0.4-0.8c0-0.1,0-0.1,0.1-0.1c0,0,0.1,0.1,0.1,0.1c0,0.1-0.1,0.9-0.2,1.2
		C14,52,14,52.1,13.8,52.1c-0.4,0.2-1.1,0.2-1.7,0.2C10.6,52.4,9.7,52,8.9,51.3L8.9,51.3z"/>
	<path fill="#F6F6F6" d="M15.5,48.5c0,1.7,1.1,3.8,3.8,3.8c2.3,0,3.9-1.8,3.9-4c0-2.3-1.6-3.6-3.8-3.6C16.7,44.7,15.5,47,15.5,48.5
		L15.5,48.5z M16.5,48.3c0-2.1,1.2-3.2,2.8-3.2c1.5,0,3,1.3,3,3.6c0,2.8-1.8,3.3-2.7,3.3C17.8,52,16.5,50.5,16.5,48.3L16.5,48.3z"/>
	<path fill="#F6F6F6" d="M26.3,49.4c0,1.4,0,2,0.2,2.2c0.2,0.2,0.4,0.2,1.2,0.2c0.5,0,0.9,0,1.2-0.3c0.1-0.2,0.2-0.4,0.3-0.6
		c0-0.1,0-0.1,0.1-0.1c0,0,0.1,0,0.1,0.1c0,0.1-0.1,0.7-0.1,1c-0.1,0.2-0.1,0.3-0.6,0.3c-1.4,0-2-0.1-2.6-0.1c-0.1,0-0.7,0-1,0
		c-0.1,0-0.2,0-0.2-0.1c0,0,0-0.1,0.1-0.1c0.1,0,0.2,0,0.3,0c0.2,0,0.2-0.2,0.3-0.5c0-0.4,0-1.2,0-2.1v-1.7c0-1.5,0-1.8,0-2.1
		c0-0.3-0.1-0.5-0.4-0.6c-0.1,0-0.2,0-0.3,0c0,0-0.1,0-0.1-0.1c0-0.1,0-0.1,0.2-0.1c0.4,0,1,0,1.1,0c0,0,0.8,0,1,0
		c0.1,0,0.2,0,0.2,0.1c0,0,0,0.1-0.1,0.1c-0.1,0-0.2,0-0.3,0c-0.3,0-0.4,0.2-0.4,0.6c0,0.3,0,0.6,0,2.1V49.4L26.3,49.4z"/>
	<path fill="#F6F6F6" d="M31.3,47.7c0-1.5,0-1.8,0-2.1c0-0.3-0.1-0.5-0.4-0.6c-0.1,0-0.2,0-0.3,0c0,0-0.1,0-0.1-0.1
		c0-0.1,0-0.1,0.2-0.1c0.4,0,1,0,1.1,0c0.1,0,2,0,2.2,0c0.2,0,0.3,0,0.4,0c0,0,0.1,0,0.1,0c0,0,0,0,0,0.1c0,0.1,0,0.2-0.1,0.5
		c0,0.1,0,0.5,0,0.6c0,0,0,0.1-0.1,0.1c-0.1,0-0.1,0-0.1-0.1c0-0.1,0-0.2-0.1-0.4c-0.1-0.2-0.2-0.3-0.7-0.3c-0.2,0-1.2,0-1.3,0
		c0,0-0.1,0-0.1,0.1V48c0,0.1,0,0.1,0.1,0.1c0.1,0,1.3,0,1.5,0c0.2,0,0.4,0,0.5-0.1c0.1-0.1,0.1-0.1,0.1-0.1c0,0,0,0,0,0.1
		c0,0.1,0,0.2-0.1,0.5c0,0.2,0,0.6,0,0.6c0,0.1,0,0.2-0.1,0.2c0,0-0.1,0-0.1-0.1c0-0.1,0-0.2,0-0.3c0-0.1-0.1-0.3-0.5-0.3
		c-0.3,0-1.2,0-1.4,0c0,0-0.1,0-0.1,0.1v0.9c0,0.3,0,1.5,0,1.7c0,0.7,0.2,0.8,1.1,0.8c0.3,0,0.7,0,0.9-0.1c0.3-0.1,0.4-0.3,0.4-0.7
		c0-0.1,0-0.1,0.1-0.1c0.1,0,0.1,0.1,0.1,0.1c0,0.1-0.1,0.7-0.1,0.9c-0.1,0.3-0.1,0.3-0.5,0.3c-1.5,0-2.1-0.1-2.4-0.1c0,0-0.7,0-1,0
		c-0.1,0-0.2,0-0.2-0.1c0,0,0-0.1,0.1-0.1c0.1,0,0.2,0,0.3,0c0.2,0,0.2-0.2,0.3-0.5c0-0.4,0-1.2,0-2.1V47.7L31.3,47.7z"/>
	<path fill="#F6F6F6" d="M40.3,47.7c0-1.5,0-1.8,0-2.1c0-0.3-0.1-0.5-0.4-0.6c-0.1,0-0.2,0-0.3,0c0,0-0.1,0-0.1-0.1
		c0-0.1,0-0.1,0.2-0.1c0.4,0,1,0,1.1,0c0.2,0,0.8,0,1.2,0c1.2,0,1.7,0.4,1.8,0.6c0.2,0.2,0.5,0.6,0.5,1.2c0,1.4-1,2.3-2.4,2.3
		c0,0-0.2,0-0.2,0c0,0-0.1,0-0.1-0.1c0-0.1,0.1-0.1,0.3-0.1c0.9,0,1.7-0.7,1.7-1.6c0-0.3,0-1-0.5-1.5c-0.5-0.5-1.1-0.5-1.3-0.5
		c-0.2,0-0.3,0-0.4,0.1c-0.1,0-0.1,0.1-0.1,0.2v4c0,0.9,0,1.7,0,2.1c0,0.3,0.1,0.5,0.4,0.5c0.1,0,0.3,0,0.4,0c0.1,0,0.1,0,0.1,0.1
		c0,0,0,0.1-0.2,0.1c-0.5,0-1.1,0-1.2,0c0,0-0.6,0-0.9,0c-0.1,0-0.2,0-0.2-0.1c0,0,0-0.1,0.1-0.1c0.1,0,0.2,0,0.3,0
		c0.2,0,0.2-0.2,0.3-0.5c0-0.4,0-1.2,0-2.1V47.7L40.3,47.7z"/>
	<path fill="#F6F6F6" d="M45.5,48.5c0,1.7,1.1,3.8,3.8,3.8c2.3,0,3.9-1.8,3.9-4c0-2.3-1.6-3.6-3.8-3.6C46.6,44.7,45.5,47,45.5,48.5
		L45.5,48.5z M46.4,48.3c0-2.1,1.2-3.2,2.8-3.2c1.5,0,3,1.3,3,3.6c0,2.8-1.8,3.3-2.7,3.3C47.8,52,46.4,50.5,46.4,48.3L46.4,48.3z"/>
	<path fill="#F6F6F6" d="M56.1,49.4c0,1.4,0,2,0.2,2.2c0.2,0.2,0.4,0.2,1.2,0.2c0.5,0,0.9,0,1.2-0.3c0.1-0.2,0.2-0.4,0.3-0.6
		c0-0.1,0-0.1,0.1-0.1c0,0,0.1,0,0.1,0.1c0,0.1-0.1,0.7-0.1,1c-0.1,0.2-0.1,0.3-0.6,0.3c-1.4,0-2-0.1-2.6-0.1c-0.1,0-0.7,0-1,0
		c-0.1,0-0.2,0-0.2-0.1c0,0,0-0.1,0.1-0.1c0.1,0,0.2,0,0.3,0c0.2,0,0.2-0.2,0.3-0.5c0-0.4,0-1.2,0-2.1v-1.7c0-1.5,0-1.8,0-2.1
		c0-0.3-0.1-0.5-0.4-0.6c-0.1,0-0.2,0-0.3,0c0,0-0.1,0-0.1-0.1c0-0.1,0-0.1,0.2-0.1c0.4,0,1,0,1.1,0c0,0,0.8,0,1,0
		c0.1,0,0.2,0,0.2,0.1c0,0,0,0.1-0.1,0.1c-0.1,0-0.2,0-0.3,0c-0.3,0-0.4,0.2-0.4,0.6c0,0.3,0,0.6,0,2.1V49.4L56.1,49.4z"/>
	<path fill="#F6F6F6" d="M61.9,49.7c0-0.5-0.1-0.7-0.2-1c-0.1-0.2-1.4-2.3-1.7-2.8c-0.2-0.4-0.5-0.6-0.7-0.7
		C59.2,45.1,59,45,58.9,45c0,0-0.1,0-0.1-0.1c0,0,0-0.1,0.1-0.1c0.2,0,0.9,0,1,0c0.1,0,0.4,0,0.8,0c0.1,0,0.1,0,0.1,0.1
		c0,0-0.1,0-0.1,0.1c-0.1,0-0.1,0.1-0.1,0.2c0,0.1,0,0.2,0.1,0.4c0.2,0.3,1.6,2.8,1.8,3.1c0.2-0.4,1.4-2.5,1.6-2.9
		c0.1-0.2,0.2-0.4,0.2-0.5c0-0.1,0-0.2-0.2-0.3c-0.1,0-0.1,0-0.1-0.1c0,0,0.1-0.1,0.2-0.1c0.3,0,0.6,0,0.6,0c0.1,0,0.8,0,0.9,0
		c0.1,0,0.1,0,0.1,0.1c0,0,0,0.1-0.1,0.1c-0.1,0-0.3,0-0.4,0.1c-0.2,0.1-0.3,0.2-0.5,0.5c-0.3,0.4-1.7,2.7-1.9,3.1
		c-0.1,0.3-0.1,0.7-0.1,1v0.8c0,0.2,0,0.6,0,1c0,0.3,0.1,0.5,0.4,0.5c0.1,0,0.3,0,0.4,0c0.1,0,0.1,0,0.1,0.1c0,0,0,0.1-0.2,0.1
		c-0.5,0-1.1,0-1.2,0c0,0-0.7,0-1,0c-0.1,0-0.2,0-0.2-0.1c0,0,0-0.1,0.1-0.1c0.1,0,0.2,0,0.3,0c0.2,0,0.3-0.2,0.3-0.5
		c0-0.4,0-0.8,0-1V49.7L61.9,49.7z"/>
	<path fill="#F6F6F6" d="M69.4,49.4c0,0.9,0,1.7,0,2.1c0,0.3,0.1,0.5,0.4,0.5c0.1,0,0.3,0,0.4,0c0.1,0,0.1,0,0.1,0.1
		c0,0,0,0.1-0.2,0.1c-0.5,0-1.1,0-1.2,0c0,0-0.7,0-1,0c-0.1,0-0.2,0-0.2-0.1c0,0,0-0.1,0.1-0.1c0.1,0,0.2,0,0.3,0
		c0.2,0,0.2-0.2,0.3-0.5c0-0.4,0-1.2,0-2.1v-4.1l-1.4,0c-0.6,0-0.8,0.1-1,0.3c-0.1,0.2-0.1,0.2-0.2,0.3C66,46,66,46,65.9,46
		c0,0,0,0,0-0.1c0-0.1,0.2-0.9,0.2-1c0-0.1,0.1-0.2,0.1-0.2c0.1,0,0.2,0.1,0.4,0.1c0.3,0,0.6,0,0.8,0H71c0.6,0,0.9-0.1,1-0.1
		c0,0,0,0.1,0,0.1c0,0.3,0,1,0,1.1c0,0.1,0,0.1-0.1,0.1c0,0-0.1,0-0.1-0.2l0-0.1c0-0.3-0.3-0.5-1.2-0.5l-1.2,0V49.4L69.4,49.4z"/>
	<path fill="#F6F6F6" d="M74.1,47.7c0-1.5,0-1.8,0-2.1c0-0.3-0.1-0.5-0.4-0.6c-0.1,0-0.2,0-0.3,0c0,0-0.1,0-0.1-0.1
		c0-0.1,0-0.1,0.2-0.1c0.4,0,1,0,1.1,0c0.1,0,2,0,2.2,0c0.2,0,0.3,0,0.4,0c0,0,0.1,0,0.1,0c0,0,0,0,0,0.1c0,0.1,0,0.2-0.1,0.5
		c0,0.1,0,0.5,0,0.6c0,0,0,0.1-0.1,0.1C77,46.1,77,46,77,46c0-0.1,0-0.2-0.1-0.4c-0.1-0.2-0.2-0.3-0.7-0.3c-0.2,0-1.2,0-1.3,0
		c0,0-0.1,0-0.1,0.1V48c0,0.1,0,0.1,0.1,0.1c0.1,0,1.3,0,1.5,0c0.2,0,0.4,0,0.5-0.1c0.1-0.1,0.1-0.1,0.1-0.1c0,0,0,0,0,0.1
		c0,0.1,0,0.2-0.1,0.5c0,0.2,0,0.6,0,0.6c0,0.1,0,0.2-0.1,0.2c0,0-0.1,0-0.1-0.1c0-0.1,0-0.2,0-0.3c0-0.1-0.1-0.3-0.5-0.3
		c-0.3,0-1.2,0-1.4,0c0,0-0.1,0-0.1,0.1v0.9c0,0.3,0,1.5,0,1.7c0,0.7,0.2,0.8,1.1,0.8c0.3,0,0.7,0,0.9-0.1c0.3-0.1,0.4-0.3,0.4-0.7
		c0-0.1,0-0.1,0.1-0.1c0.1,0,0.1,0.1,0.1,0.1c0,0.1-0.1,0.7-0.1,0.9c-0.1,0.3-0.1,0.3-0.5,0.3c-1.5,0-2.1-0.1-2.4-0.1c0,0-0.7,0-1,0
		c-0.1,0-0.2,0-0.2-0.1c0,0,0-0.1,0.1-0.1c0.1,0,0.2,0,0.3,0c0.2,0,0.2-0.2,0.3-0.5c0-0.4,0-1.2,0-2.1V47.7L74.1,47.7z"/>
	<path fill="#F6F6F6" d="M80.1,51.3c-0.9-0.8-1.2-1.9-1.2-2.9c0-0.7,0.2-1.8,1.1-2.7c0.6-0.6,1.5-1,3-1c0.4,0,0.9,0,1.4,0.1
		c0.4,0.1,0.7,0.1,1,0.1c0.1,0,0.1,0,0.1,0.1c0,0.1,0,0.2,0,0.5c0,0.3,0,0.9,0,1c0,0.1,0,0.2-0.1,0.2c-0.1,0-0.1-0.1-0.1-0.2
		c0-0.4-0.2-0.8-0.4-1c-0.3-0.3-1.1-0.6-1.9-0.6c-1.3,0-1.9,0.4-2.2,0.7c-0.7,0.7-0.9,1.5-0.9,2.5c0,1.9,1.4,3.6,3.5,3.6
		c0.7,0,1.3-0.1,1.7-0.5c0.2-0.2,0.3-0.6,0.4-0.8c0-0.1,0-0.1,0.1-0.1c0,0,0.1,0.1,0.1,0.1c0,0.1-0.1,0.9-0.2,1.2
		c-0.1,0.2-0.1,0.2-0.3,0.3c-0.4,0.2-1.1,0.2-1.7,0.2C81.8,52.4,80.8,52,80.1,51.3L80.1,51.3z"/>
	<path fill="#F6F6F6" d="M93.7,49.4c0,0.9,0,1.7,0,2.1c0,0.3,0.1,0.5,0.4,0.5c0.1,0,0.3,0,0.4,0c0.1,0,0.1,0,0.1,0.1
		c0,0,0,0.1-0.2,0.1c-0.5,0-1.1,0-1.2,0c0,0-0.7,0-1,0c-0.1,0-0.2,0-0.2-0.1c0,0,0-0.1,0.1-0.1c0.1,0,0.2,0,0.3,0
		c0.2,0,0.2-0.2,0.3-0.5c0-0.4,0-1.2,0-2.1v-1c0,0,0-0.1-0.1-0.1h-4.1c0,0-0.1,0-0.1,0.1v1c0,0.9,0,1.7,0,2.1c0,0.3,0.1,0.5,0.4,0.5
		c0.1,0,0.3,0,0.4,0c0.1,0,0.1,0,0.1,0.1c0,0,0,0.1-0.2,0.1c-0.5,0-1.1,0-1.2,0c0,0-0.7,0-1,0c-0.1,0-0.2,0-0.2-0.1
		c0,0,0-0.1,0.1-0.1c0.1,0,0.2,0,0.3,0c0.2,0,0.2-0.2,0.3-0.5c0-0.4,0-1.2,0-2.1v-1.7c0-1.5,0-1.8,0-2.1c0-0.3-0.1-0.5-0.4-0.6
		c-0.1,0-0.2,0-0.3,0c0,0-0.1,0-0.1-0.1c0-0.1,0-0.1,0.2-0.1c0.4,0,1.1,0,1.1,0c0,0,0.7,0,1,0c0.1,0,0.2,0,0.2,0.1
		c0,0,0,0.1-0.1,0.1c-0.1,0-0.1,0-0.2,0c-0.3,0-0.3,0.2-0.4,0.6c0,0.3,0,0.6,0,2.1v0.2c0,0,0,0.1,0.1,0.1h4.1c0,0,0.1,0,0.1-0.1
		v-0.2c0-1.5,0-1.8,0-2.1c0-0.3-0.1-0.5-0.4-0.6c-0.1,0-0.2,0-0.3,0c0,0-0.1,0-0.1-0.1c0-0.1,0.1-0.1,0.2-0.1c0.4,0,1.1,0,1.1,0
		c0,0,0.7,0,0.9,0c0.1,0,0.2,0,0.2,0.1c0,0,0,0.1-0.1,0.1c-0.1,0-0.1,0-0.2,0c-0.3,0-0.3,0.2-0.4,0.6c0,0.3,0,0.6,0,2.1V49.4
		L93.7,49.4z"/>
	<path fill="#F6F6F6" d="M97.4,50.9c0,0.8,0.1,1,0.4,1.1c0.2,0,0.4,0.1,0.5,0.1c0,0,0.1,0,0.1,0.1c0,0.1-0.1,0.1-0.2,0.1
		c-0.6,0-0.9,0-1,0c-0.1,0-0.5,0-0.9,0c-0.1,0-0.2,0-0.2-0.1c0,0,0-0.1,0.1-0.1c0.1,0,0.3,0,0.4-0.1c0.2-0.1,0.3-0.3,0.3-1.2l0-5.6
		c0-0.4,0-0.5,0.1-0.5c0.1,0,0.2,0.2,0.3,0.3c0.1,0.2,1.6,1.7,3.1,3.3c1,1,2,2.2,2.3,2.5l-0.1-4.9c0-0.6-0.1-0.8-0.4-0.9
		c-0.2,0-0.4,0-0.5,0c-0.1,0-0.1,0-0.1-0.1c0-0.1,0.1-0.1,0.2-0.1c0.4,0,0.9,0,1,0c0.1,0,0.4,0,0.8,0c0.1,0,0.2,0,0.2,0.1
		c0,0,0,0.1-0.1,0.1c-0.1,0-0.1,0-0.2,0c-0.3,0.1-0.4,0.3-0.4,0.9l0,5.7c0,0.6,0,0.7-0.1,0.7c-0.1,0-0.2-0.1-0.7-0.6
		c-0.1-0.1-1.5-1.5-2.5-2.6c-1.1-1.2-2.2-2.4-2.5-2.8L97.4,50.9L97.4,50.9z"/>
	<path fill="#F6F6F6" d="M107.1,49.4c0,0.9,0,1.7,0,2.1c0,0.3,0.1,0.5,0.4,0.5c0.1,0,0.3,0,0.4,0c0.1,0,0.1,0,0.1,0.1
		c0,0,0,0.1-0.2,0.1c-0.5,0-1.1,0-1.2,0c0,0-0.7,0-1,0c-0.1,0-0.2,0-0.2-0.1c0,0,0-0.1,0.1-0.1c0.1,0,0.2,0,0.3,0
		c0.2,0,0.2-0.2,0.3-0.5c0-0.4,0-1.2,0-2.1v-1.7c0-1.5,0-1.8,0-2.1c0-0.3-0.1-0.5-0.3-0.5c-0.1,0-0.2,0-0.3,0c0,0-0.1,0-0.1-0.1
		c0-0.1,0-0.1,0.2-0.1c0.3,0,0.9,0,1,0c0,0,0.7,0,1,0c0.1,0,0.2,0,0.2,0.1c0,0,0,0.1-0.1,0.1c-0.1,0-0.1,0-0.2,0
		c-0.3,0-0.3,0.2-0.4,0.6c0,0.3,0,0.6,0,2.1V49.4L107.1,49.4z"/>
	<path fill="#F6F6F6" d="M116.4,52.9c1.6,0.9,2.8,1.3,4,1.3c1.4,0,2.5-0.4,3.1-0.7c0.1,0,0.1-0.1,0.1-0.1c0,0,0-0.1-0.1-0.1
		c0,0-0.1,0-0.1,0c-0.7,0.3-1.4,0.4-1.9,0.4c-0.5,0-2,0-4.1-1.1l-2-1c0.6-0.4,1.7-1.6,1.7-3.3c0-2.3-1.6-3.6-3.8-3.6
		c-2.7,0-3.8,2.2-3.8,3.8c0,1.7,1.1,3.8,3.8,3.8c0.5,0,1.2-0.1,1.5-0.3L116.4,52.9L116.4,52.9z M110.4,48.3c0-2.1,1.2-3.2,2.8-3.2
		c1.5,0,3,1.3,3,3.6c0,2.8-1.8,3.3-2.7,3.3C111.8,52,110.4,50.5,110.4,48.3L110.4,48.3z"/>
	<path fill="#F6F6F6" d="M119,47.7c0-1.5,0-1.8,0-2.1c0-0.3-0.1-0.5-0.4-0.6c-0.1,0-0.2,0-0.3,0c0,0-0.1,0-0.1-0.1
		c0-0.1,0.1-0.1,0.2-0.1c0.4,0,1,0,1.1,0c0.1,0,0.7,0,1,0c0.1,0,0.2,0,0.2,0.1c0,0,0,0.1-0.1,0.1c-0.1,0-0.1,0-0.2,0
		c-0.3,0-0.3,0.2-0.4,0.6c0,0.3,0,0.6,0,2.1v1.4c0,1.4,0.3,2,0.7,2.4c0.5,0.4,0.9,0.5,1.5,0.5c0.6,0,1.2-0.3,1.5-0.7
		c0.4-0.6,0.6-1.4,0.6-2.4v-1.2c0-1.5,0-1.8,0-2.1c0-0.3-0.1-0.5-0.4-0.6c-0.1,0-0.2,0-0.3,0c0,0-0.1,0-0.1-0.1c0-0.1,0-0.1,0.2-0.1
		c0.4,0,1,0,1,0c0.1,0,0.5,0,0.8,0c0.1,0,0.2,0,0.2,0.1c0,0,0,0.1-0.1,0.1c-0.1,0-0.1,0-0.2,0c-0.3,0-0.3,0.2-0.4,0.6
		c0,0.3,0,0.6,0,2.1v1c0,1-0.1,2.2-0.9,2.9c-0.7,0.6-1.4,0.7-2,0.7c-0.3,0-1.3,0-2-0.7c-0.5-0.5-0.8-1.1-0.8-2.6V47.7L119,47.7z"/>
	<path fill="#F6F6F6" d="M127.6,47.7c0-1.5,0-1.8,0-2.1c0-0.3-0.1-0.5-0.4-0.6c-0.1,0-0.2,0-0.3,0c0,0-0.1,0-0.1-0.1
		c0-0.1,0-0.1,0.2-0.1c0.4,0,1,0,1.1,0c0.1,0,2,0,2.2,0c0.2,0,0.3,0,0.4,0c0,0,0.1,0,0.1,0c0,0,0,0,0,0.1c0,0.1,0,0.2-0.1,0.5
		c0,0.1,0,0.5,0,0.6c0,0,0,0.1-0.1,0.1c-0.1,0-0.1,0-0.1-0.1c0-0.1,0-0.2-0.1-0.4c-0.1-0.2-0.2-0.3-0.7-0.3c-0.2,0-1.2,0-1.3,0
		c0,0-0.1,0-0.1,0.1V48c0,0.1,0,0.1,0.1,0.1c0.1,0,1.3,0,1.5,0c0.2,0,0.4,0,0.5-0.1c0.1-0.1,0.1-0.1,0.1-0.1c0,0,0,0,0,0.1
		c0,0.1,0,0.2-0.1,0.5c0,0.2,0,0.6,0,0.6c0,0.1,0,0.2-0.1,0.2c0,0-0.1,0-0.1-0.1c0-0.1,0-0.2,0-0.3c0-0.1-0.1-0.3-0.5-0.3
		c-0.3,0-1.2,0-1.4,0c0,0-0.1,0-0.1,0.1v0.9c0,0.3,0,1.5,0,1.7c0,0.7,0.2,0.8,1.1,0.8c0.3,0,0.7,0,0.9-0.1c0.3-0.1,0.4-0.3,0.4-0.7
		c0-0.1,0-0.1,0.1-0.1c0.1,0,0.1,0.1,0.1,0.1c0,0.1-0.1,0.7-0.1,0.9c-0.1,0.3-0.1,0.3-0.5,0.3c-1.5,0-2.1-0.1-2.4-0.1c0,0-0.7,0-1,0
		c-0.1,0-0.2,0-0.2-0.1c0,0,0-0.1,0.1-0.1c0.1,0,0.2,0,0.3,0c0.2,0,0.2-0.2,0.3-0.5c0-0.4,0-1.2,0-2.1V47.7L127.6,47.7z"/>
	<path fill="#F6F6F6" d="M3,59.3c0-1.5,0-1.8,0-2.1c0-0.3-0.1-0.5-0.4-0.6c-0.1,0-0.2,0-0.3,0c0,0-0.1,0-0.1-0.1
		c0-0.1,0-0.1,0.2-0.1c0.4,0,1,0,1.1,0c0.2,0,2.2,0,2.4,0c0.2,0,0.3,0,0.4,0c0.1,0,0.1-0.1,0.1-0.1c0,0,0.1,0,0.1,0.1
		c0,0.1,0,0.2-0.1,0.5c0,0.1,0,0.5,0,0.6c0,0,0,0.1-0.1,0.1c0,0-0.1,0-0.1-0.1c0-0.1,0-0.2-0.1-0.4C6,57.1,5.7,57,5.4,56.9l-1.5,0
		c-0.1,0-0.1,0-0.1,0.1v2.7c0,0.1,0,0.1,0.1,0.1l1.2,0c0.2,0,0.3,0,0.4,0c0.2,0,0.4,0,0.4-0.2c0,0,0.1-0.1,0.1-0.1c0,0,0,0,0,0.1
		c0,0.1,0,0.2-0.1,0.5c0,0.2,0,0.6,0,0.7C6,60.9,6,61,6,61c0,0-0.1,0-0.1-0.1c0-0.1,0-0.2-0.1-0.3c0-0.1-0.2-0.3-0.5-0.4
		c-0.2,0-1.3,0-1.5,0c0,0-0.1,0-0.1,0.1v0.8c0,0.9,0,1.7,0,2.1c0,0.3,0.1,0.5,0.4,0.5c0.1,0,0.3,0,0.4,0c0.1,0,0.1,0,0.1,0.1
		c0,0,0,0.1-0.2,0.1c-0.5,0-1.1,0-1.2,0c0,0-0.7,0-1,0c-0.1,0-0.2,0-0.2-0.1c0,0,0-0.1,0.1-0.1c0.1,0,0.2,0,0.3,0
		c0.2,0,0.2-0.3,0.3-0.5c0-0.4,0-1.2,0-2.1V59.3L3,59.3z"/>
	<path fill="#F6F6F6" d="M8.7,59.3c0-1.5,0-1.8,0-2.1c0-0.3-0.1-0.5-0.4-0.6c-0.1,0-0.2,0-0.3,0c0,0-0.1,0-0.1-0.1
		c0-0.1,0-0.1,0.2-0.1c0.4,0,1,0,1.1,0c0.1,0,2,0,2.2,0c0.2,0,0.3,0,0.4,0c0,0,0.1,0,0.1,0c0,0,0,0,0,0.1c0,0.1,0,0.2-0.1,0.5
		c0,0.1,0,0.5,0,0.6c0,0,0,0.1-0.1,0.1c-0.1,0-0.1,0-0.1-0.1c0-0.1,0-0.2-0.1-0.3c-0.1-0.2-0.2-0.3-0.7-0.3c-0.2,0-1.2,0-1.3,0
		c0,0-0.1,0-0.1,0.1v2.7c0,0.1,0,0.1,0.1,0.1c0.1,0,1.3,0,1.5,0c0.2,0,0.4,0,0.5-0.1c0.1-0.1,0.1-0.1,0.1-0.1c0,0,0,0,0,0.1
		c0,0.1,0,0.2-0.1,0.5c0,0.2,0,0.6,0,0.6c0,0.1,0,0.2-0.1,0.2c0,0-0.1,0-0.1-0.1c0-0.1,0-0.2,0-0.3c0-0.1-0.1-0.3-0.5-0.3
		c-0.3,0-1.2,0-1.4,0c0,0-0.1,0-0.1,0.1v0.9c0,0.3,0,1.5,0,1.7c0,0.7,0.2,0.8,1.1,0.8c0.3,0,0.7,0,0.9-0.1c0.3-0.1,0.4-0.3,0.4-0.7
		c0-0.1,0-0.1,0.1-0.1c0.1,0,0.1,0.1,0.1,0.1c0,0.1-0.1,0.7-0.1,0.9c-0.1,0.3-0.1,0.3-0.5,0.3c-1.5,0-2.1-0.1-2.4-0.1c0,0-0.7,0-1,0
		c-0.1,0-0.2,0-0.2-0.1c0,0,0-0.1,0.1-0.1c0.1,0,0.2,0,0.3,0c0.2,0,0.2-0.3,0.3-0.5c0-0.4,0-1.2,0-2.1V59.3L8.7,59.3z M11.5,55.2
		c0,0.1,0,0.1,0,0.1c0,0-0.1,0-0.3,0c-0.5,0-1.2,0.3-1.5,0.4c-0.1,0-0.1,0-0.1,0c0,0,0,0,0-0.1c0,0,0,0,0.1-0.1
		c0.4-0.2,1.3-0.8,1.3-0.8c0.2-0.1,0.2-0.1,0.3-0.1c0,0,0,0,0.1,0.1C11.4,54.9,11.4,55,11.5,55.2L11.5,55.2z"/>
	<path fill="#F6F6F6" d="M14.6,61.1c0,0.9,0,1.7,0,2.1c0,0.3-0.1,0.5-0.3,0.5c-0.1,0-0.2,0-0.3,0c-0.1,0-0.1,0-0.1,0.1
		c0,0.1,0,0.1,0.2,0.1c0.3,0,0.9,0,1,0c0.1,0,1.3,0.1,2.2,0.1c1.7,0,2.5-0.7,2.9-1.1c0.5-0.6,1-1.5,1-2.7c0-1.2-0.5-2-0.9-2.5
		c-1.2-1.2-2.9-1.1-3.9-1.1c-0.6,0-1.2,0-1.3,0c0,0-0.7,0-1.1,0c-0.1,0-0.2,0-0.2,0.1c0,0,0,0.1,0.1,0.1c0.1,0,0.3,0,0.3,0
		c0.3,0.1,0.4,0.2,0.4,0.6c0,0.3,0,0.6,0,2.1V61.1L14.6,61.1z M15.5,59.2c0-0.7,0-1.7,0-2.1c0-0.1,0-0.2,0.1-0.2
		c0.1,0,0.4-0.1,0.6-0.1c1.2,0,2.3,0.1,3.2,1.1c0.4,0.4,0.9,1.2,0.9,2.4c0,0.9-0.3,1.8-0.8,2.3c-0.6,0.6-1.4,0.9-2.3,0.9
		c-1.1,0-1.5-0.2-1.7-0.4c-0.1-0.1-0.1-0.5-0.1-0.7c0-0.2,0-1.1,0-2.1V59.2L15.5,59.2z"/>
	<path fill="#F6F6F6" d="M23.2,59.3c0-1.5,0-1.8,0-2.1c0-0.3-0.1-0.5-0.4-0.6c-0.1,0-0.2,0-0.3,0c0,0-0.1,0-0.1-0.1
		c0-0.1,0-0.1,0.2-0.1c0.4,0,1,0,1.1,0c0.1,0,2,0,2.2,0c0.2,0,0.3,0,0.4,0c0,0,0.1,0,0.1,0c0,0,0,0,0,0.1c0,0.1,0,0.2-0.1,0.5
		c0,0.1,0,0.5,0,0.6c0,0,0,0.1-0.1,0.1c-0.1,0-0.1,0-0.1-0.1c0-0.1,0-0.2-0.1-0.3c-0.1-0.2-0.2-0.3-0.7-0.3c-0.2,0-1.2,0-1.3,0
		c0,0-0.1,0-0.1,0.1v2.7c0,0.1,0,0.1,0.1,0.1c0.1,0,1.3,0,1.5,0c0.2,0,0.4,0,0.5-0.1c0.1-0.1,0.1-0.1,0.1-0.1c0,0,0,0,0,0.1
		c0,0.1,0,0.2-0.1,0.5c0,0.2,0,0.6,0,0.6c0,0.1,0,0.2-0.1,0.2c0,0-0.1,0-0.1-0.1c0-0.1,0-0.2,0-0.3c0-0.1-0.1-0.3-0.5-0.3
		c-0.3,0-1.2,0-1.4,0c0,0-0.1,0-0.1,0.1v0.9c0,0.3,0,1.5,0,1.7c0,0.7,0.2,0.8,1.1,0.8c0.3,0,0.7,0,0.9-0.1c0.3-0.1,0.4-0.3,0.4-0.7
		c0-0.1,0-0.1,0.1-0.1c0.1,0,0.1,0.1,0.1,0.1c0,0.1-0.1,0.7-0.1,0.9c-0.1,0.3-0.1,0.3-0.5,0.3c-1.5,0-2.1-0.1-2.4-0.1c0,0-0.7,0-1,0
		c-0.1,0-0.2,0-0.2-0.1c0,0,0-0.1,0.1-0.1c0.1,0,0.2,0,0.3,0c0.2,0,0.2-0.3,0.3-0.5c0-0.4,0-1.2,0-2.1V59.3L23.2,59.3z M26,55.2
		c0,0.1,0,0.1,0,0.1c0,0-0.1,0-0.3,0c-0.5,0-1.2,0.3-1.5,0.4c-0.1,0-0.1,0-0.1,0c0,0,0,0,0-0.1c0,0,0,0,0.1-0.1
		c0.3-0.2,1.3-0.8,1.3-0.8c0.2-0.1,0.2-0.1,0.3-0.1c0,0,0,0,0.1,0.1C25.8,54.9,25.9,55,26,55.2L26,55.2z"/>
	<path fill="#F6F6F6" d="M29.1,61.1c0,0.9,0,1.7,0,2.1c0,0.3-0.1,0.5-0.3,0.5c-0.1,0-0.2,0-0.3,0c-0.1,0-0.1,0-0.1,0.1
		c0,0.1,0,0.1,0.2,0.1c0.3,0,0.9,0,0.9,0c0,0,0.7,0,1.2,0c0.1,0,0.2,0,0.2-0.1c0,0,0-0.1-0.1-0.1c-0.1,0-0.3,0-0.4,0
		c-0.3,0-0.3-0.3-0.4-0.5c0-0.4,0-1.2,0-2.1v-0.2c0,0,0-0.1,0.1-0.1l1.2,0c0.1,0,0.1,0,0.1,0.1c0.2,0.3,0.7,0.9,1.1,1.4
		c0.6,0.7,0.9,1.2,1.3,1.4c0.3,0.1,0.5,0.2,1,0.2h0.7c0.2,0,0.2,0,0.2-0.1c0,0,0-0.1-0.1-0.1c-0.1,0-0.2,0-0.4,0
		c-0.2,0-0.7-0.1-1.2-0.7c-0.6-0.6-1.2-1.5-2-2.5c0.9-0.8,1.2-1.5,1.2-2.2c0-0.7-0.4-1.1-0.7-1.3c-0.5-0.4-1.2-0.4-1.8-0.4
		c-0.3,0-1,0-1.1,0c0,0-0.7,0-1.1,0c-0.1,0-0.2,0-0.2,0.1c0,0,0,0.1,0.1,0.1c0.1,0,0.3,0,0.3,0c0.3,0.1,0.4,0.2,0.4,0.6
		c0,0.3,0,0.6,0,2.1V61.1L29.1,61.1z M29.9,57c0-0.1,0-0.1,0.1-0.1c0.1,0,0.4-0.1,0.7-0.1c1,0,1.7,0.7,1.7,1.9
		c0,0.7-0.3,1.3-0.6,1.5c-0.2,0.2-0.5,0.2-0.7,0.2c-0.4,0-0.9-0.1-1-0.2c0,0-0.1-0.1-0.1-0.1V57L29.9,57z"/>
	<path fill="#F6F6F6" d="M35.6,62.8c-0.2,0.5-0.4,0.9-0.8,0.9c-0.1,0-0.2,0-0.3,0c0,0-0.1,0-0.1,0.1c0,0.1,0.1,0.1,0.2,0.1
		c0.5,0,1,0,1.1,0c0.1,0,0.5,0,0.8,0c0.1,0,0.1,0,0.1-0.1c0,0,0-0.1-0.1-0.1h-0.1c-0.2,0-0.4-0.1-0.4-0.3c0-0.2,0-0.4,0.1-0.7
		l0.6-1.7c0,0,0-0.1,0.1-0.1h2.1c0,0,0.1,0,0.1,0.1l0.9,2.4c0.1,0.2,0,0.2-0.1,0.3c0,0-0.1,0-0.1,0.1c0,0.1,0.1,0.1,0.3,0.1
		c0.7,0,1.4,0,1.5,0c0.1,0,0.2,0,0.2-0.1c0,0,0-0.1-0.1-0.1c-0.1,0-0.2,0-0.4-0.1c-0.2-0.1-0.5-0.2-0.8-1.1
		c-0.6-1.5-2.1-5.5-2.3-5.9c-0.1-0.3-0.2-0.3-0.2-0.3c-0.1,0-0.1,0.1-0.2,0.4L35.6,62.8L35.6,62.8z M37,60.7
		C36.9,60.7,36.9,60.6,37,60.7l0.8-2.7c0-0.1,0.1-0.1,0.1,0l0.9,2.6c0,0,0,0.1,0,0.1H37L37,60.7z"/>
	<path fill="#F6F6F6" d="M44,61.1c0,1.4,0,2.1,0.2,2.2c0.2,0.2,0.4,0.2,1.2,0.2c0.5,0,0.9,0,1.2-0.3c0.1-0.2,0.2-0.4,0.3-0.6
		c0-0.1,0-0.1,0.1-0.1c0,0,0.1,0,0.1,0.1c0,0.1-0.1,0.7-0.1,1c-0.1,0.2-0.1,0.3-0.6,0.3c-1.4,0-2-0.1-2.6-0.1c-0.1,0-0.7,0-1,0
		c-0.1,0-0.2,0-0.2-0.1c0,0,0-0.1,0.1-0.1c0.1,0,0.2,0,0.3,0c0.2,0,0.2-0.3,0.3-0.5c0-0.4,0-1.2,0-2.1v-1.7c0-1.5,0-1.8,0-2.1
		c0-0.3-0.1-0.5-0.4-0.6c-0.1,0-0.2,0-0.3,0c0,0-0.1,0-0.1-0.1c0-0.1,0-0.1,0.2-0.1c0.4,0,1,0,1.1,0c0,0,0.8,0,1,0
		c0.1,0,0.2,0,0.2,0.1c0,0,0,0.1-0.1,0.1c-0.1,0-0.2,0-0.3,0c-0.3,0-0.4,0.2-0.4,0.6c0,0.3,0,0.6,0,2.1V61.1L44,61.1z"/>
	<path fill="#F6F6F6" d="M48.9,59.3c0-1.5,0-1.8,0-2.1c0-0.3-0.1-0.5-0.4-0.6c-0.1,0-0.2,0-0.3,0c0,0-0.1,0-0.1-0.1
		c0-0.1,0-0.1,0.2-0.1c0.4,0,1,0,1.1,0c0.1,0,2,0,2.2,0c0.2,0,0.3,0,0.4,0c0,0,0.1,0,0.1,0c0,0,0,0,0,0.1c0,0.1,0,0.2-0.1,0.5
		c0,0.1,0,0.5,0,0.6c0,0,0,0.1-0.1,0.1c-0.1,0-0.1,0-0.1-0.1c0-0.1,0-0.2-0.1-0.3c-0.1-0.2-0.2-0.3-0.7-0.3c-0.2,0-1.2,0-1.3,0
		c0,0-0.1,0-0.1,0.1v2.7c0,0.1,0,0.1,0.1,0.1c0.1,0,1.3,0,1.5,0c0.2,0,0.4,0,0.5-0.1c0.1-0.1,0.1-0.1,0.1-0.1c0,0,0,0,0,0.1
		c0,0.1,0,0.2-0.1,0.5c0,0.2,0,0.6,0,0.6c0,0.1,0,0.2-0.1,0.2c0,0-0.1,0-0.1-0.1c0-0.1,0-0.2,0-0.3c0-0.1-0.1-0.3-0.5-0.3
		c-0.3,0-1.2,0-1.4,0c0,0-0.1,0-0.1,0.1v0.9c0,0.3,0,1.5,0,1.7c0,0.7,0.2,0.8,1.1,0.8c0.3,0,0.7,0,0.9-0.1c0.3-0.1,0.4-0.3,0.4-0.7
		c0-0.1,0-0.1,0.1-0.1c0.1,0,0.1,0.1,0.1,0.1c0,0.1-0.1,0.7-0.1,0.9c-0.1,0.3-0.1,0.3-0.5,0.3c-1.5,0-2.1-0.1-2.4-0.1c0,0-0.7,0-1,0
		c-0.1,0-0.2,0-0.2-0.1c0,0,0-0.1,0.1-0.1c0.1,0,0.2,0,0.3,0c0.2,0,0.2-0.3,0.3-0.5c0-0.4,0-1.2,0-2.1V59.3L48.9,59.3z"/>
	<path fill="#F6F6F6" d="M58,61.1c0,0.9,0,1.7,0,2.1c0,0.3-0.1,0.5-0.3,0.5c-0.1,0-0.2,0-0.3,0c-0.1,0-0.1,0-0.1,0.1
		c0,0.1,0,0.1,0.2,0.1c0.3,0,0.9,0,1,0c0.1,0,1.3,0.1,2.2,0.1c1.6,0,2.5-0.7,2.9-1.1c0.5-0.6,1-1.5,1-2.7c0-1.2-0.5-2-0.9-2.5
		c-1.2-1.2-2.9-1.1-3.9-1.1c-0.6,0-1.2,0-1.3,0c0,0-0.7,0-1.1,0c-0.1,0-0.2,0-0.2,0.1c0,0,0,0.1,0.1,0.1c0.1,0,0.3,0,0.3,0
		c0.3,0.1,0.4,0.2,0.4,0.6c0,0.3,0,0.6,0,2.1V61.1L58,61.1z M58.8,59.2c0-0.7,0-1.7,0-2.1c0-0.1,0-0.2,0.1-0.2
		c0.1,0,0.4-0.1,0.6-0.1c1.2,0,2.3,0.1,3.2,1.1c0.4,0.4,0.9,1.2,0.9,2.4c0,0.9-0.3,1.8-0.8,2.3c-0.6,0.6-1.4,0.9-2.3,0.9
		c-1.1,0-1.5-0.2-1.6-0.4c-0.1-0.1-0.1-0.5-0.1-0.7c0-0.2,0-1.1,0-2.1V59.2L58.8,59.2z"/>
	<path fill="#F6F6F6" d="M66.9,59.3c0-1.5,0-1.8,0-2.1c0-0.3-0.1-0.5-0.4-0.6c-0.1,0-0.2,0-0.3,0c0,0-0.1,0-0.1-0.1
		c0-0.1,0-0.1,0.2-0.1c0.4,0,1,0,1.1,0c0.1,0,2,0,2.2,0c0.2,0,0.3,0,0.4,0c0,0,0.1,0,0.1,0c0,0,0,0,0,0.1c0,0.1,0,0.2-0.1,0.5
		c0,0.1,0,0.5,0,0.6c0,0,0,0.1-0.1,0.1c-0.1,0-0.1,0-0.1-0.1c0-0.1,0-0.2-0.1-0.3c-0.1-0.2-0.2-0.3-0.7-0.3c-0.2,0-1.2,0-1.3,0
		c0,0-0.1,0-0.1,0.1v2.7c0,0.1,0,0.1,0.1,0.1c0.1,0,1.3,0,1.5,0c0.2,0,0.4,0,0.5-0.1c0.1-0.1,0.1-0.1,0.1-0.1c0,0,0,0,0,0.1
		c0,0.1,0,0.2-0.1,0.5c0,0.2,0,0.6,0,0.6c0,0.1,0,0.2-0.1,0.2c0,0-0.1,0-0.1-0.1c0-0.1,0-0.2,0-0.3c0-0.1-0.1-0.3-0.5-0.3
		c-0.3,0-1.2,0-1.4,0c0,0-0.1,0-0.1,0.1v0.9c0,0.3,0,1.5,0,1.7c0,0.7,0.2,0.8,1.1,0.8c0.3,0,0.7,0,0.9-0.1c0.3-0.1,0.4-0.3,0.4-0.7
		c0-0.1,0-0.1,0.1-0.1c0.1,0,0.1,0.1,0.1,0.1c0,0.1-0.1,0.7-0.1,0.9c-0.1,0.3-0.1,0.3-0.5,0.3c-1.5,0-2.1-0.1-2.4-0.1c0,0-0.7,0-1,0
		c-0.1,0-0.2,0-0.2-0.1c0,0,0-0.1,0.1-0.1c0.1,0,0.2,0,0.3,0c0.2,0,0.2-0.3,0.3-0.5c0-0.4,0-1.2,0-2.1V59.3L66.9,59.3z"/>
	<path fill="#F6F6F6" d="M76.8,61.1c0,1.4,0,2.1,0.2,2.2c0.2,0.2,0.4,0.2,1.2,0.2c0.5,0,0.9,0,1.2-0.3c0.1-0.2,0.2-0.4,0.3-0.6
		c0-0.1,0-0.1,0.1-0.1c0,0,0.1,0,0.1,0.1c0,0.1-0.1,0.7-0.1,1c-0.1,0.2-0.1,0.3-0.6,0.3c-1.4,0-2-0.1-2.6-0.1c-0.1,0-0.7,0-1,0
		c-0.1,0-0.2,0-0.2-0.1c0,0,0-0.1,0.1-0.1c0.1,0,0.2,0,0.3,0c0.2,0,0.2-0.3,0.3-0.5c0-0.4,0-1.2,0-2.1v-1.7c0-1.5,0-1.8,0-2.1
		c0-0.3-0.1-0.5-0.4-0.6c-0.1,0-0.2,0-0.3,0c0,0-0.1,0-0.1-0.1c0-0.1,0-0.1,0.2-0.1c0.4,0,1.1,0,1.1,0c0,0,0.8,0,1,0
		c0.1,0,0.2,0,0.2,0.1c0,0,0,0.1-0.1,0.1c-0.1,0-0.2,0-0.3,0c-0.3,0-0.4,0.2-0.4,0.6c0,0.3,0,0.6,0,2.1V61.1L76.8,61.1z"/>
	<path fill="#F6F6F6" d="M81.1,62.8c-0.2,0.5-0.4,0.9-0.8,0.9c-0.1,0-0.2,0-0.3,0c0,0-0.1,0-0.1,0.1c0,0.1,0.1,0.1,0.2,0.1
		c0.5,0,1,0,1.1,0c0.1,0,0.5,0,0.8,0c0.1,0,0.1,0,0.1-0.1c0,0,0-0.1-0.1-0.1h-0.1c-0.2,0-0.4-0.1-0.4-0.3c0-0.2,0-0.4,0.1-0.7
		l0.6-1.7c0,0,0-0.1,0.1-0.1h2.1c0,0,0.1,0,0.1,0.1l0.9,2.4c0.1,0.2,0,0.2-0.1,0.3c0,0-0.1,0-0.1,0.1c0,0.1,0.1,0.1,0.3,0.1
		c0.7,0,1.4,0,1.5,0c0.1,0,0.2,0,0.2-0.1c0,0,0-0.1-0.1-0.1c-0.1,0-0.2,0-0.4-0.1c-0.2-0.1-0.5-0.2-0.8-1.1
		c-0.6-1.5-2.1-5.5-2.3-5.9c-0.1-0.3-0.2-0.3-0.2-0.3c-0.1,0-0.1,0.1-0.2,0.4L81.1,62.8L81.1,62.8z M82.5,60.7
		C82.5,60.7,82.4,60.6,82.5,60.7l0.8-2.7c0-0.1,0.1-0.1,0.1,0l0.9,2.6c0,0,0,0.1,0,0.1H82.5L82.5,60.7z"/>
	<path fill="#F6F6F6" d="M88.2,59.3c0-1.5,0-1.8,0-2.1c0-0.3-0.1-0.5-0.4-0.6c-0.1,0-0.2,0-0.3,0c0,0-0.1,0-0.1-0.1
		c0-0.1,0-0.1,0.2-0.1c0.4,0,1,0,1.1,0c0.1,0,0.7,0,1,0c0.1,0,0.2,0,0.2,0.1c0,0,0,0.1-0.1,0.1c-0.1,0-0.1,0-0.2,0
		c-0.3,0-0.3,0.2-0.4,0.6c0,0.3,0,0.6,0,2.1v1.4c0,1.4,0.3,2,0.7,2.4c0.5,0.4,0.9,0.5,1.5,0.5c0.6,0,1.2-0.3,1.5-0.7
		c0.4-0.6,0.6-1.4,0.6-2.4v-1.2c0-1.5,0-1.8,0-2.1c0-0.3-0.1-0.5-0.4-0.6c-0.1,0-0.2,0-0.3,0c0,0-0.1,0-0.1-0.1c0-0.1,0-0.1,0.2-0.1
		c0.4,0,1,0,1,0c0.1,0,0.5,0,0.8,0c0.1,0,0.2,0,0.2,0.1c0,0,0,0.1-0.1,0.1c-0.1,0-0.1,0-0.2,0c-0.3,0-0.3,0.2-0.4,0.6
		c0,0.3,0,0.6,0,2.1v1c0,1.1-0.1,2.2-0.9,2.9c-0.7,0.6-1.4,0.7-2,0.7c-0.3,0-1.3,0-2-0.7c-0.5-0.5-0.8-1.1-0.8-2.6V59.3L88.2,59.3z"
		/>
	<path fill="#F6F6F6" d="M96.2,63.7C96,63.7,96,63.6,96,63.4c0-0.5,0-0.9,0.1-1c0-0.1,0-0.2,0.1-0.2c0.1,0,0.1,0,0.1,0.1
		c0,0.1,0,0.2,0,0.4c0.1,0.7,0.8,1,1.4,1c0.9,0,1.4-0.7,1.4-1.3c0-0.7-0.3-1.1-1.1-1.7l-0.4-0.4c-1-0.8-1.3-1.4-1.3-2.1
		c0-1,0.8-1.7,2-1.7c0.4,0,0.7,0,0.9,0.1c0.2,0,0.3,0,0.3,0c0.1,0,0.1,0,0.1,0.1c0,0,0,0.4,0,1c0,0.2,0,0.2-0.1,0.2
		c-0.1,0-0.1,0-0.1-0.1c0-0.1-0.1-0.4-0.1-0.5c-0.1-0.1-0.3-0.5-1.2-0.5c-0.7,0-1.2,0.4-1.2,1.1c0,0.6,0.3,0.9,1.2,1.6l0.3,0.2
		c1.1,0.9,1.4,1.5,1.4,2.3c0,0.4-0.2,1.1-0.8,1.6C98.5,63.9,98,64,97.5,64C97,64,96.6,63.9,96.2,63.7L96.2,63.7z"/>
	<path fill="#F6F6F6" d="M101.5,62.8c-0.2,0.5-0.4,0.9-0.8,0.9c-0.1,0-0.2,0-0.3,0c-0.1,0-0.1,0-0.1,0.1c0,0.1,0.1,0.1,0.2,0.1
		c0.5,0,1,0,1.1,0c0.1,0,0.5,0,0.8,0c0.1,0,0.1,0,0.1-0.1c0,0,0-0.1-0.1-0.1h-0.1c-0.2,0-0.4-0.1-0.4-0.3c0-0.2,0-0.4,0.1-0.7
		l0.6-1.7c0,0,0.1-0.1,0.1-0.1h2.1c0,0,0.1,0,0.1,0.1l0.9,2.4c0.1,0.2,0,0.2-0.1,0.3c0,0-0.1,0-0.1,0.1c0,0.1,0.1,0.1,0.3,0.1
		c0.7,0,1.4,0,1.5,0c0.1,0,0.2,0,0.2-0.1c0,0,0-0.1-0.1-0.1c-0.1,0-0.2,0-0.4-0.1c-0.2-0.1-0.5-0.2-0.8-1.1
		c-0.6-1.5-2.1-5.5-2.3-5.9c-0.1-0.3-0.2-0.3-0.2-0.3c-0.1,0-0.1,0.1-0.2,0.4L101.5,62.8L101.5,62.8z M102.9,60.7
		C102.9,60.7,102.8,60.6,102.9,60.7l0.8-2.7c0-0.1,0.1-0.1,0.1,0l0.9,2.6c0,0,0,0.1,0,0.1H102.9L102.9,60.7z"/>
	<path fill="#F6F6F6" d="M109.4,62.5c0,0.8,0.1,1.1,0.4,1.1c0.2,0,0.4,0.1,0.5,0.1c0,0,0.1,0,0.1,0.1c0,0.1-0.1,0.1-0.2,0.1
		c-0.6,0-0.9,0-1,0c-0.1,0-0.5,0-0.9,0c-0.1,0-0.2,0-0.2-0.1c0,0,0-0.1,0.1-0.1c0.1,0,0.3,0,0.4-0.1c0.2-0.1,0.3-0.4,0.3-1.2l0-5.6
		c0-0.4,0-0.5,0.1-0.5c0.1,0,0.2,0.2,0.3,0.3c0.1,0.2,1.6,1.7,3.1,3.3c1,1,2,2.2,2.3,2.5l-0.1-4.9c0-0.6-0.1-0.8-0.4-0.9
		c-0.2,0-0.4,0-0.5,0c-0.1,0-0.1,0-0.1-0.1c0-0.1,0.1-0.1,0.2-0.1c0.4,0,0.9,0,1,0c0.1,0,0.4,0,0.8,0c0.1,0,0.2,0,0.2,0.1
		c0,0,0,0.1-0.1,0.1c0,0-0.1,0-0.2,0c-0.3,0.1-0.4,0.3-0.4,0.9l0,5.7c0,0.6,0,0.7-0.1,0.7c-0.1,0-0.2-0.1-0.7-0.6
		c-0.1-0.1-1.5-1.5-2.5-2.6c-1.1-1.2-2.2-2.4-2.5-2.8L109.4,62.5L109.4,62.5z"/>
	<path fill="#F6F6F6" d="M118.6,62.5c0,0.8,0.1,1.1,0.4,1.1c0.2,0,0.4,0.1,0.5,0.1c0,0,0.1,0,0.1,0.1c0,0.1-0.1,0.1-0.2,0.1
		c-0.6,0-0.9,0-1,0c-0.1,0-0.5,0-0.9,0c-0.1,0-0.2,0-0.2-0.1c0,0,0-0.1,0.1-0.1c0.1,0,0.3,0,0.4-0.1c0.2-0.1,0.3-0.4,0.3-1.2l0-5.6
		c0-0.4,0-0.5,0.1-0.5c0.1,0,0.2,0.2,0.3,0.3c0.1,0.2,1.6,1.7,3.1,3.3c1,1,2,2.2,2.3,2.5l-0.1-4.9c0-0.6-0.1-0.8-0.4-0.9
		c-0.2,0-0.4,0-0.5,0c-0.1,0-0.1,0-0.1-0.1c0-0.1,0.1-0.1,0.2-0.1c0.4,0,0.9,0,1,0c0.1,0,0.4,0,0.8,0c0.1,0,0.2,0,0.2,0.1
		c0,0,0,0.1-0.1,0.1c0,0-0.1,0-0.2,0c-0.3,0.1-0.4,0.3-0.4,0.9l0,5.7c0,0.6,0,0.7-0.1,0.7c-0.1,0-0.2-0.1-0.7-0.6
		c-0.1-0.1-1.5-1.5-2.5-2.6c-1.1-1.2-2.2-2.4-2.5-2.8L118.6,62.5L118.6,62.5z"/>
	<path fill="#F6F6F6" d="M127.5,59.3c0-1.5,0-1.8,0-2.1c0-0.3-0.1-0.5-0.4-0.6c-0.1,0-0.2,0-0.3,0c0,0-0.1,0-0.1-0.1
		c0-0.1,0-0.1,0.2-0.1c0.4,0,1.1,0,1.1,0c0.1,0,2,0,2.2,0c0.2,0,0.3,0,0.4,0c0,0,0.1,0,0.1,0c0,0,0,0,0,0.1c0,0.1,0,0.2-0.1,0.5
		c0,0.1,0,0.5,0,0.6c0,0,0,0.1-0.1,0.1c-0.1,0-0.1,0-0.1-0.1c0-0.1,0-0.2-0.1-0.3c-0.1-0.2-0.2-0.3-0.7-0.3c-0.2,0-1.2,0-1.3,0
		c0,0-0.1,0-0.1,0.1v2.7c0,0.1,0,0.1,0.1,0.1c0.1,0,1.3,0,1.5,0c0.2,0,0.4,0,0.5-0.1c0.1-0.1,0.1-0.1,0.1-0.1c0,0,0,0,0,0.1
		c0,0.1,0,0.2-0.1,0.5c0,0.2,0,0.6,0,0.6c0,0.1,0,0.2-0.1,0.2c-0.1,0-0.1,0-0.1-0.1c0-0.1,0-0.2,0-0.3c0-0.1-0.1-0.3-0.5-0.3
		c-0.3,0-1.2,0-1.4,0c-0.1,0-0.1,0-0.1,0.1v0.9c0,0.3,0,1.5,0,1.7c0,0.7,0.2,0.8,1.1,0.8c0.2,0,0.7,0,0.9-0.1
		c0.3-0.1,0.4-0.3,0.4-0.7c0-0.1,0-0.1,0.1-0.1c0.1,0,0.1,0.1,0.1,0.1c0,0.1-0.1,0.7-0.1,0.9c-0.1,0.3-0.1,0.3-0.5,0.3
		c-1.5,0-2.1-0.1-2.4-0.1c0,0-0.7,0-0.9,0c-0.1,0-0.2,0-0.2-0.1c0,0,0-0.1,0.1-0.1c0.1,0,0.2,0,0.3,0c0.2,0,0.2-0.3,0.3-0.5
		c0.1-0.4,0.1-1.2,0.1-2.1V59.3L127.5,59.3z"/>
</g>
</svg>
