<?xml version="1.0" encoding="UTF-8"?>
<svg width="394px" height="401px" viewBox="0 0 394 401" version="1.1" xmlns="http://www.w3.org/2000/svg" xmlns:xlink="http://www.w3.org/1999/xlink">
    <!-- Generator: Sketch 48.1 (47250) - http://www.bohemiancoding.com/sketch -->
    <title>Shape</title>
    <desc>Created with Sketch.</desc>
    <defs>
        <linearGradient x1="0%" y1="50%" x2="100%" y2="50%" id="linearGradient-1">
            <stop stop-color="#E052A0" offset="0%"></stop>
            <stop stop-color="#F15D40" offset="100%"></stop>
        </linearGradient>
    </defs>
    <g id="Page-1" stroke="none" stroke-width="1" fill="none" fill-rule="evenodd">
        <g id="np_alligator_1218202_000000" fill="url(#linearGradient-1)" fill-rule="nonzero">
            <path d="M388.058449,311.18211 L354.202705,268.165466 C348.48571,257.168501 339.900684,248.094857 329.416349,242.363128 L327.982429,235.193687 C327.982429,206.030315 306.529397,181.666644 278.874056,177.350641 C266.006051,165.401574 251.219669,156.32793 234.533978,150.577083 C227.867329,138.628015 215.464617,130.972964 201.162596,130.972964 C200.678425,130.972964 200.212846,131.458383 200.212846,131.925162 L200.212846,143.874229 L199.728675,143.874229 C192.577665,136.219179 182.558622,130.97306 171.124633,130.97306 C170.640462,130.97306 170.174884,131.458479 170.174884,131.925257 L170.174884,143.874325 L169.225134,143.874325 C162.074124,136.219274 152.055081,131.439647 141.105454,131.439647 C140.621283,131.439647 140.155705,131.925066 140.155705,132.391845 L140.155705,144.340912 L139.205955,144.340912 C133.488961,138.123573 126.33795,133.829556 117.752924,132.391845 C125.388296,121.880489 137.306647,114.711048 151.608668,114.711048 L194.999092,111.835816 L232.18816,109.446002 C234.57183,109.931421 236.955501,109.931421 239.823532,109.931421 C271.295606,109.931421 296.545347,86.9853879 296.545347,55.4532326 C296.545347,28.6796739 277.960348,6.21829474 253.154923,0 C266.50729,6.21733882 276.04197,19.6041182 276.04197,35.3615925 L276.04197,41.0933212 C276.04197,62.6016428 258.871917,79.8159474 237.418886,79.8159474 L234.085466,79.8159474 L234.066845,63.124534 C234.066845,62.639115 233.582674,62.1723367 233.117096,62.1723367 C221.683107,62.1723367 211.179702,67.4375738 204.028692,75.559116 L204.028692,63.1244384 C204.028692,62.6390194 203.544521,62.1722411 203.078943,62.1722411 C191.644954,62.1722411 181.141549,67.4374782 173.990539,75.5590204 L174.00916,63.1243428 C174.00916,62.6389239 173.524989,62.1721455 173.059411,62.1721455 C161.625422,62.1721455 151.122018,67.4373826 143.971007,75.5589248 L143.971007,63.1242472 C143.971007,62.6388283 143.486836,62.1720499 143.021258,62.1720499 C131.587269,62.1720499 121.083865,67.437287 113.932854,75.5588292 L113.932854,63.1241516 C113.932854,62.6387327 113.448683,62.1719543 112.983105,62.1719543 C103.448424,62.1719543 94.8633976,65.5139651 88.1967489,71.7312083 C56.7246752,74.6064407 31.9373661,103.284394 31.9373661,135.768651 L31.9373661,145.327905 C31.9373661,146.765521 32.4215372,148.669916 32.8871156,150.107532 L24.3020892,161.104498 C15.2517704,172.567955 14.2830469,187.878057 20.9686695,200.293616 C8.56595704,205.558853 0,217.974412 0,232.313293 C0,235.655304 0.48417108,238.530632 1.43392061,241.386937 C3.81759076,234.703106 8.58493105,228.000158 15.7359415,222.268429 C10.4842394,229.437869 8.58493105,238.511513 10.018947,248.070767 C10.5031181,251.412778 11.4528676,254.288106 12.8867882,257.144411 C14.3207089,246.147445 22.9058306,235.15048 35.7738355,226.076836 C31.9562448,232.760666 30.056841,240.415717 31.0064952,248.537259 C31.4906663,251.87927 32.4404158,254.754598 33.3901654,257.610903 C35.2896644,247.566039 42.4404842,238.006785 53.4091807,229.885242 L95.3655892,262.857021 L140.17096,262.857021 C153.523327,262.857021 165.441678,256.639683 174.026704,246.613937 C187.844363,229.399632 209.781756,220.325988 239.820767,220.325988 L257.456113,220.325988 L257.456113,227.009819 L239.336406,227.009819 C211.216726,227.009819 191.663003,234.664869 178.795951,250.422344 C169.261271,262.371411 154.95925,269.540852 139.707575,269.540852 L92.5185336,269.540852 L65.3485078,270.493049 C46.7635084,270.493049 31.0274715,284.34632 31.0274715,302.998337 L31.0274715,304.435953 L41.0465139,313.043105 C43.9143551,308.263478 48.6818861,303.969461 56.7825507,301.579648 C55.8328012,305.873856 56.2983796,311.138902 58.6820498,315.918529 C60.5815489,319.745958 63.9337519,322.602359 67.2670762,323.573579 L65.3675771,318.308342 C62.983907,311.624512 64.883406,304.921563 68.7009968,299.675444 L73.9526989,299.675444 C86.3554114,300.160863 100.17307,312.576613 125.444741,310.1868 C145.948119,307.796986 139.2624,289.63058 159.765778,289.63058 C175.967107,292.020394 179.319501,302.065258 188.369819,300.141936 C226.992903,291.068292 247.012872,287.707258 263.698563,286.288665 C276.101276,285.336468 276.101276,266.684547 276.101276,266.684547 C276.101276,266.684547 287.535265,271.464174 279.434696,283.898851 C271.334031,296.333529 257.981664,294.410207 257.981664,294.410207 C235.094617,289.63058 200.773581,312.576613 200.773581,312.576613 C200.773581,312.576613 159.766826,312.576613 150.716508,330.74302 C141.666189,348.909426 114.011801,336.474749 114.011801,336.474749 C91.1247539,349.375918 66.8227601,344.129799 54.4200476,339.816759 C59.1873879,349.376013 83.0240893,357.031064 111.628131,357.031064 C138.798157,357.031064 161.198935,350.347234 167.887514,341.740081 L169.787013,341.740081 L199.825071,346.034289 C216.995123,349.3763 234.630469,350.813916 252.265814,349.3763 L278.001824,347.471906 C268.951505,353.689244 263.215441,363.71499 263.215441,375.664058 C263.215441,379.006068 263.699612,381.881396 264.649362,384.737701 C267.982781,374.692837 277.052074,365.619193 289.920079,358.935363 C289.920079,359.420782 290.40425,359.88756 290.869829,359.88756 C281.335148,368.009103 275.133792,379.95817 275.133792,393.830559 L275.133792,401 L304.222195,371.370136 C305.171945,371.855555 306.605865,372.322334 308.039786,372.322334 C306.140287,376.616542 304.706366,381.881588 304.706366,387.146825 C304.706366,390.488835 305.190537,393.364163 306.140287,396.220469 C310.423456,381.881588 326.643664,369.93252 349.04635,363.24869 L372.883051,359.42126 C384.31704,359.42126 393.386428,347.957802 393.386428,333.618921 C395.211414,324.563918 392.827744,316.927508 388.060356,311.177139 L388.058449,311.18211 Z M241.705869,261.483548 C235.988875,265.777756 230.27188,268.167378 224.070524,259.579153 L245.039193,244.288171 C251.24055,252.409713 247.422864,257.18934 241.705774,261.483835 L241.705869,261.483548 Z" id="Shape"></path>
        </g>
    </g>
</svg>