<?xml version="1.0" encoding="UTF-8"?>
<svg width="147px" height="221px" viewBox="0 0 147 221" version="1.1" xmlns="http://www.w3.org/2000/svg" xmlns:xlink="http://www.w3.org/1999/xlink">
    <!-- Generator: Sketch 48.1 (47250) - http://www.bohemiancoding.com/sketch -->
    <title>Slice</title>
    <desc>Created with Sketch.</desc>
    <defs></defs>
    <g id="Page-1" stroke="none" stroke-width="1" fill="none" fill-rule="evenodd">
        <g id="scala_icon_full_color" transform="translate(7.000000, 3.000000)">
            <path d="M0.45,79.826 C2.305,82.384 17.945,87.188 41.177,92.199 C64.446,96.663 88.64,114.271 107.462,108.835 C120.193,105.159 133.998,72.374 133.998,67.496 C133.998,67.336 133.998,67.171 133.998,67.017 C133.998,63.622 131.455,60.887 127.119,58.623 C109.374,49.552 106.016,46.208 99.43,48.022 C65.27,57.431 4.96,52.612 0.45,79.826" id="Fill-1" fill="#7F0C1D"></path>
            <path d="M0.45,146.413 C2.305,148.97 17.945,153.775 41.177,158.786 C67.131,163.529 89.787,178.977 108.609,173.541 C121.34,169.865 133.998,138.96 133.998,134.083 C133.998,133.922 133.998,133.758 133.998,133.603 C133.998,130.209 131.455,127.473 127.119,125.209 C113.581,118.015 95.689,110.081 89.103,111.895 C54.943,121.304 9.167,123.369 0.45,146.413" id="Fill-2" fill="#7F0C1D"></path>
            <path d="M0.264,94.145 C0.264,94.291 0.264,94.46 0.264,94.624 L0.306,94.624 C0.279,94.465 0.264,94.305 0.264,94.145" id="Fill-3" fill="#696A69"></path>
            <path d="M108.56,13.782 C77.107,22.866 27.197,28.032 0.306,28.038 L0.264,28.038 C0.264,35.742 0.264,62.752 0.264,79.348 C0.264,79.497 0.327,79.657 0.45,79.826 C18.806,79.787 75.474,73.843 109.634,64.434 C116.219,62.62 122.557,60.677 127.119,58.623 C131.306,56.738 133.998,54.759 133.998,52.699 C133.998,35.75 133.998,7.923 133.998,0.91 C133.998,5.788 121.291,10.106 108.56,13.782" id="Fill-4" fill="#DC322F"></path>
            <path d="M108.56,80.369 C89.738,85.805 64.322,89.836 41.177,92.199 C25.634,93.787 11.115,94.622 0.306,94.624 L0.264,94.624 C0.264,102.328 0.264,129.338 0.264,145.934 C0.264,146.083 0.327,146.243 0.45,146.413 C18.806,146.374 75.474,140.429 109.634,131.02 C116.219,129.206 122.557,127.263 127.119,125.209 C131.306,123.324 133.998,121.345 133.998,119.286 C133.998,115.451 133.998,111.057 133.998,106.475 C133.998,94.629 133.998,76.469 133.998,67.496 C133.998,72.374 121.291,76.692 108.56,80.369" id="Fill-5" fill="#DC322F"></path>
            <path d="M108.56,146.955 C89.738,152.391 64.322,156.422 41.177,158.786 C25.614,160.375 11.077,161.211 0.264,161.211 C0.264,170.004 0.264,200.942 0.264,213 C18.426,213 75.361,207.047 109.634,197.607 C122.265,194.128 133.998,190.175 133.998,185.872 C133.998,182.037 133.998,177.643 133.998,173.062 C133.998,161.216 133.998,143.055 133.998,134.083 C133.998,138.96 121.291,143.279 108.56,146.955" id="Fill-6" fill="#DC322F"></path>
        </g>
    </g>
</svg>